<svg width="261" height="47" xmlns="http://www.w3.org/2000/svg"><g fill="none" fill-rule="evenodd"><path d="M6.84 15.588l.005 18.481A3.043 3.043 0 0 0 9.9 37.108h2.08l.003 6.31a2.858 2.858 0 0 0 2.863 2.849 2.86 2.86 0 0 0 2.865-2.85l-.002-6.31h3.867l.002 6.31c0 1.57 1.285 2.85 2.863 2.847a2.858 2.858 0 0 0 2.866-2.85l-.002-6.308 2.088-.001a3.048 3.048 0 0 0 3.058-3.04l-.003-18.482-25.609.005z" fill="#76C258"/><path d="M25.797 10.51a1.36 1.36 0 0 1-1.364-1.356 1.37 1.37 0 0 1 1.365-1.36 1.368 1.368 0 0 1 1.362 1.361c.002.75-.61 1.356-1.363 1.356m-11.75.001a1.36 1.36 0 0 1-1.36-1.356 1.363 1.363 0 0 1 2.728 0c0 .748-.611 1.356-1.367 1.356m11.915-6.171l2-3.63a.395.395 0 0 0-.158-.538.4.4 0 0 0-.539.158l-2.019 3.667c-1.7-.751-3.6-1.173-5.613-1.171a13.817 13.817 0 0 0-5.6 1.166L12.015.335a.396.396 0 0 0-.539-.158.39.39 0 0 0-.157.535l2 3.628c-3.93 2.015-6.585 5.852-6.583 10.257l25.802-.002c0-4.405-2.65-8.234-6.574-10.254M2.864 15.05A2.857 2.857 0 0 0 0 17.898l.002 11.925a2.855 2.855 0 0 0 2.865 2.85 2.852 2.852 0 0 0 2.863-2.85V17.897a2.857 2.857 0 0 0-2.866-2.846M39.282 17.893a2.856 2.856 0 0 0-2.864-2.847 2.855 2.855 0 0 0-2.864 2.849l.002 11.926a2.854 2.854 0 0 0 2.865 2.847 2.855 2.855 0 0 0 2.863-2.848l-.002-11.927z" fill="#76BF5E"/><g fill="#76BF5E" fill-rule="nonzero"><path d="M60 28.833c0-2.272.38-4.393 1.141-6.36.761-1.968 1.826-3.683 3.195-5.143 1.37-1.461 3.008-2.607 4.915-3.439 1.907-.832 3.997-1.248 6.269-1.248 1.725 0 3.292.254 4.702.76 1.41.508 2.774 1.34 4.093 2.496v-2.647h7.73v31.162h-7.73v-2.648c-1.319 1.157-2.683 1.989-4.093 2.496-1.41.507-2.977.76-4.702.76-2.272 0-4.362-.415-6.269-1.247-1.907-.832-3.545-1.978-4.915-3.439-1.37-1.46-2.434-3.175-3.195-5.143-.76-1.968-1.141-4.088-1.141-6.36zm16.524 8.916c.61 0 1.248-.065 1.918-.197a8.949 8.949 0 0 0 2.024-.67 9.477 9.477 0 0 0 1.993-1.263 11.394 11.394 0 0 0 1.856-1.948v-9.677c-.589-.77-1.207-1.415-1.856-1.932a10.407 10.407 0 0 0-1.994-1.263 8.504 8.504 0 0 0-2.024-.685 9.943 9.943 0 0 0-1.917-.198 8.466 8.466 0 0 0-3.362.67 8.21 8.21 0 0 0-2.724 1.872 8.728 8.728 0 0 0-1.81 2.83c-.437 1.085-.655 2.267-.655 3.545s.218 2.46.654 3.545a8.728 8.728 0 0 0 1.811 2.83 8.214 8.214 0 0 0 2.723 1.872 8.478 8.478 0 0 0 3.363.67zm34.843-17.413c-3.663.027-6.845 2.579-6.845 6.367v17.711h-7.73V26.916c.044-7.297 6.363-14.175 14.464-14.273h.216c8.101.098 14.42 6.976 14.463 14.273v17.498h-7.73V26.703c0-3.788-3.18-6.34-6.844-6.367h.006zm18.227 8.497c0-2.272.38-4.393 1.142-6.36.76-1.968 1.826-3.683 3.195-5.143 1.37-1.461 3.008-2.607 4.915-3.439 1.907-.832 3.996-1.248 6.269-1.248 1.724 0 3.296.254 4.717.76 1.42.508 2.78 1.33 4.077 2.466V3.909h7.73v40.505h-7.73v-2.617c-1.298 1.156-2.657 1.983-4.077 2.48-1.42.497-2.993.745-4.717.745-2.273 0-4.362-.415-6.27-1.247-1.906-.832-3.545-1.978-4.914-3.439-1.37-1.46-2.435-3.175-3.195-5.143-.761-1.968-1.142-4.088-1.142-6.36zm16.525 8.916c.609 0 1.248-.065 1.917-.197a8.949 8.949 0 0 0 2.024-.67 9.477 9.477 0 0 0 1.993-1.263 11.411 11.411 0 0 0 1.856-1.948v-9.677c-.588-.77-1.207-1.415-1.856-1.932a10.405 10.405 0 0 0-1.993-1.263 8.51 8.51 0 0 0-2.024-.685 9.947 9.947 0 0 0-1.917-.198 8.468 8.468 0 0 0-3.363.67 8.208 8.208 0 0 0-2.723 1.872 8.722 8.722 0 0 0-1.811 2.83c-.437 1.085-.655 2.267-.654 3.545 0 1.278.217 2.46.654 3.545a8.728 8.728 0 0 0 1.81 2.83 8.212 8.212 0 0 0 2.724 1.872 8.474 8.474 0 0 0 3.363.67zm51.718 0a8.263 8.263 0 0 0 3.271-.654 8.048 8.048 0 0 0 2.678-1.841 8.68 8.68 0 0 0 1.796-2.815c.436-1.085.654-2.287.654-3.606 0-1.299-.223-2.49-.67-3.576a8.761 8.761 0 0 0-1.825-2.815 8.464 8.464 0 0 0-2.679-1.856 7.927 7.927 0 0 0-3.225-.67 8.103 8.103 0 0 0-3.272.67 8.242 8.242 0 0 0-2.678 1.856 8.891 8.891 0 0 0-1.81 2.815c-.447 1.085-.67 2.277-.67 3.576 0 1.319.218 2.52.654 3.606a8.675 8.675 0 0 0 1.796 2.815 8.047 8.047 0 0 0 2.678 1.84 8.34 8.34 0 0 0 3.302.655zm0 7.273c-2.252 0-4.372-.405-6.36-1.217a16.151 16.151 0 0 1-5.22-3.393c-1.49-1.45-2.668-3.165-3.53-5.143-.862-1.978-1.293-4.123-1.293-6.436 0-2.252.431-4.362 1.293-6.33a16.38 16.38 0 0 1 3.515-5.143c1.481-1.46 3.22-2.612 5.219-3.454 1.999-.842 4.124-1.263 6.376-1.263 2.251 0 4.372.421 6.36 1.263 1.988.842 3.723 1.993 5.204 3.454a16.377 16.377 0 0 1 3.515 5.143c.862 1.968 1.293 4.078 1.293 6.33 0 2.313-.431 4.458-1.293 6.436-.863 1.978-2.04 3.693-3.53 5.143a16.202 16.202 0 0 1-5.205 3.393c-1.977.812-4.092 1.217-6.344 1.217zm23.7-34.21a4.371 4.371 0 0 1-1.776-.367 4.756 4.756 0 0 1-2.466-2.466 4.373 4.373 0 0 1-.367-1.776c0-.626.123-1.223.367-1.79a4.71 4.71 0 0 1 2.466-2.481 4.375 4.375 0 0 1 1.776-.367c.626 0 1.223.122 1.79.367a4.712 4.712 0 0 1 1.483.998c.424.426.763.93.998 1.482.245.568.367 1.165.367 1.791 0 .626-.122 1.218-.367 1.776a4.709 4.709 0 0 1-2.48 2.466 4.475 4.475 0 0 1-1.79.367zm-3.865 2.44h7.73v31.162h-7.73V13.252zm11.284 15.58c0-2.271.38-4.392 1.14-6.36.762-1.967 1.826-3.682 3.196-5.142 1.37-1.461 3.008-2.607 4.915-3.439 1.907-.832 3.996-1.248 6.269-1.248 1.724 0 3.297.254 4.716.76 1.42.508 2.78 1.33 4.078 2.466V3.909H261v40.505h-7.73v-2.617c-1.298 1.156-2.657 1.983-4.078 2.48-1.42.497-2.992.745-4.716.745-2.273 0-4.362-.415-6.27-1.247-1.906-.832-3.544-1.978-4.914-3.439-1.37-1.46-2.434-3.175-3.195-5.143-.761-1.968-1.141-4.088-1.141-6.36zm16.524 8.917a9.91 9.91 0 0 0 1.917-.197 8.942 8.942 0 0 0 2.024-.67 9.467 9.467 0 0 0 1.993-1.263 11.396 11.396 0 0 0 1.856-1.948v-9.677a10.94 10.94 0 0 0-1.856-1.932 10.393 10.393 0 0 0-1.993-1.263 8.504 8.504 0 0 0-2.024-.685 9.943 9.943 0 0 0-1.917-.198 8.466 8.466 0 0 0-3.363.67 8.21 8.21 0 0 0-2.723 1.872 8.728 8.728 0 0 0-1.811 2.83c-.436 1.085-.654 2.267-.654 3.545s.218 2.46.654 3.545a8.728 8.728 0 0 0 1.81 2.83 8.214 8.214 0 0 0 2.724 1.872 8.478 8.478 0 0 0 3.363.67zm-64.782-17.507c-5.18 0-7.465 2.673-7.465 6.46v17.712h-7.73V26.916c.044-7.297 4.259-14.47 15.195-14.47v7.796z"/></g></g></svg>
