<svg version="1.1" id="Layer_1" xmlns="http://www.w3.org/2000/svg" xmlns:xlink="http://www.w3.org/1999/xlink" x="0px" y="0px" viewBox="0 0 250.2 46.9" enable-background="new 0 0 250.2 46.9" xml:space="preserve">
<g>
	<path fill="#FFFFFF" d="M2.5,0h26.6l-2.5,7.4h-8.9L10,29.8H1.3L8.9,7.4H0L2.5,0z"></path>
	<path fill="#FFFFFF" d="M45.8,21.1H30.1c-0.3,1.3-0.3,2.3,0,3c0.4,0.9,1.2,1.4,2.5,1.4c0.8,0,1.6-0.2,2.4-0.6
		c0.5-0.3,1.1-0.7,1.8-1.4l7.5,0.7c-1.9,2.2-3.9,3.7-5.9,4.7c-2,0.9-4.5,1.4-7.7,1.4c-2.7,0-4.7-0.4-6-1.2c-1.3-0.8-2.1-2.1-2.6-3.8
		c-0.4-1.8-0.2-3.8,0.6-6.2c1.2-3.4,3.1-6.1,5.9-8.2c2.8-2.1,5.9-3.1,9.6-3.1c2.9,0,5.1,0.5,6.5,1.4c1.4,0.9,2.2,2.3,2.5,4.1
		c0.3,1.8-0.1,4.1-1,7L45.8,21.1z M39.1,17.2c0.4-1.6,0.4-2.8,0-3.5c-0.4-0.7-1.2-1.1-2.2-1.1c-1.2,0-2.4,0.5-3.5,1.6
		c-0.7,0.7-1.3,1.6-1.9,2.9H39.1z"></path>
	<path fill="#FFFFFF" d="M64.6,21.4l7.2,0.9c-1,1.6-2.1,3.1-3.5,4.2c-1.3,1.2-2.9,2.1-4.5,2.8c-1.7,0.7-3.7,1-5.9,1
		c-2.2,0-3.9-0.2-5.2-0.6c-1.3-0.4-2.3-1.1-3-2.1c-0.7-1-1.2-2.1-1.3-3.4c-0.2-1.3,0.1-3,0.9-5.1c0.8-2.2,1.7-4.1,3-5.6
		c0.9-1.1,1.9-2.1,3.2-2.9c1.2-0.9,2.4-1.5,3.5-1.9c1.8-0.7,3.8-1,6.2-1c3.3,0,5.7,0.6,7,1.9c1.3,1.3,1.9,3.1,1.8,5.5l-7.8,1.1
		c0.1-1-0.1-1.7-0.5-2.2c-0.4-0.5-1.2-0.7-2.2-0.7c-1.3,0-2.5,0.5-3.7,1.5c-1.1,1-2.1,2.5-2.7,4.5c-0.6,1.8-0.7,3.1-0.2,4.1
		c0.5,0.9,1.3,1.4,2.6,1.4c1,0,2-0.3,2.9-0.8C63.1,23.4,63.9,22.5,64.6,21.4z"></path>
	<path fill="#FFFFFF" d="M82.3,0h7.9l-3.7,11c1.5-1.2,2.8-2,4-2.5c1.2-0.5,2.6-0.7,4-0.7c2.1,0,3.6,0.7,4.3,2.1
		c0.8,1.4,0.7,3.5-0.3,6.3l-4.7,13.7h-7.9l4-11.9c0.5-1.4,0.6-2.3,0.3-2.9c-0.3-0.6-0.9-0.8-1.7-0.8c-0.9,0-1.8,0.4-2.7,1.1
		c-0.8,0.8-1.6,2.1-2.3,4.1L80,29.8h-7.9L82.3,0z"></path>
	<path fill="#FFFFFF" d="M109.3,0h8.2l5.1,16.5L128.2,0h8.2l-10.1,29.8H118l-5-16.4l-5.6,16.4h-8.2L109.3,0z"></path>
	<path fill="#FFFFFF" d="M157.3,21.1h-15.7c-0.3,1.3-0.3,2.3,0,3c0.4,0.9,1.2,1.4,2.4,1.4c0.8,0,1.6-0.2,2.4-0.6
		c0.5-0.3,1.1-0.7,1.8-1.4l7.5,0.7c-1.9,2.2-3.9,3.7-5.9,4.7c-2,0.9-4.5,1.4-7.7,1.4c-2.7,0-4.7-0.4-6-1.2c-1.3-0.8-2.1-2.1-2.6-3.8
		c-0.4-1.8-0.2-3.8,0.6-6.2c1.2-3.4,3.1-6.1,5.9-8.2c2.8-2.1,5.9-3.1,9.6-3.1c2.9,0,5.1,0.5,6.5,1.4c1.4,0.9,2.2,2.3,2.5,4.1
		c0.3,1.8-0.1,4.1-1,7L157.3,21.1z M150.6,17.2c0.4-1.6,0.4-2.8,0-3.5c-0.4-0.7-1.2-1.1-2.2-1.1c-1.2,0-2.4,0.5-3.5,1.6
		c-0.7,0.7-1.3,1.6-1.9,2.9H150.6z"></path>
	<path fill="#FFFFFF" d="M162.5,8.3h9.3l1.2,6l5.9-6h8.7l-10.5,10.3l3.7,11.3h-9.2l-1.4-6.9l-6.8,6.9h-8.6l11.3-11.3L162.5,8.3z"></path>
	<path fill="#FFFFFF" d="M190.9,8.3h7.9l-7.3,21.6h-7.9L190.9,8.3z M193.7,0h7.9l-1.9,5.6h-7.9L193.7,0z"></path>
	<path fill="#FFFFFF" d="M199.2,19.1c1.1-3.3,3.1-6,5.9-8.2c2.8-2.1,6.1-3.2,9.6-3.2c4.1,0,6.8,1.3,8,3.8c1,2,1,4.5,0,7.5
		c-1.1,3.3-3.1,6.1-5.9,8.2c-2.8,2.1-6.1,3.2-9.8,3.2c-3.3,0-5.7-0.9-7.1-2.6C198.2,25.5,198,22.6,199.2,19.1z M207,19.1
		c-0.7,1.9-0.8,3.4-0.3,4.3c0.4,0.9,1.2,1.4,2.3,1.4c1.1,0,2.2-0.5,3.3-1.4c1-0.9,1.9-2.4,2.6-4.4c0.6-1.9,0.7-3.3,0.3-4.2
		c-0.4-0.9-1.2-1.4-2.3-1.4c-1.1,0-2.2,0.5-3.3,1.4C208.5,15.8,207.7,17.2,207,19.1z"></path>
	<path fill="#FFFFFF" d="M230.2,8.3h7.3l-1.2,3.5c1.6-1.4,3-2.5,4.4-3.1c1.3-0.6,2.8-0.9,4.4-0.9c2.2,0,3.6,0.7,4.4,2
		c0.8,1.4,0.7,3.5-0.3,6.3l-4.7,13.7h-7.9l4-11.9c0.5-1.4,0.6-2.3,0.3-2.9c-0.3-0.6-0.9-0.8-1.7-0.8c-0.9,0-1.8,0.4-2.7,1.1
		s-1.6,2.1-2.3,4.1l-3.5,10.4h-7.9L230.2,8.3z"></path>
</g>
<g>
	<path fill="#FFFFFF" d="M80.2,43.8h-1.5v-8h1.5V43.8z"></path>
	<path fill="#FFFFFF" d="M83.1,35.8c0,0,0.1,0,0.1,0c0,0,0.1,0,0.1,0.1c0,0,0.1,0.1,0.1,0.1l4.2,5.3c0-0.1,0-0.3,0-0.4s0-0.2,0-0.3
		v-4.8h1.3v8h-0.8c-0.1,0-0.2,0-0.3-0.1c-0.1,0-0.2-0.1-0.2-0.2l-4.2-5.3c0,0.1,0,0.2,0,0.3c0,0.1,0,0.2,0,0.3v4.9h-1.3v-8H83
		C83,35.8,83.1,35.8,83.1,35.8z"></path>
	<path fill="#FFFFFF" d="M91.9,35.8c0,0,0.1,0,0.1,0c0,0,0.1,0,0.1,0.1c0,0,0.1,0.1,0.1,0.1l4.2,5.3c0-0.1,0-0.3,0-0.4s0-0.2,0-0.3
		v-4.8h1.3v8h-0.8c-0.1,0-0.2,0-0.3-0.1c-0.1,0-0.2-0.1-0.2-0.2l-4.2-5.3c0,0.1,0,0.2,0,0.3c0,0.1,0,0.2,0,0.3v4.9H91v-8h0.8
		C91.8,35.8,91.9,35.8,91.9,35.8z"></path>
	<path fill="#FFFFFF" d="M107.3,39.8c0,0.6-0.1,1.1-0.3,1.6c-0.2,0.5-0.5,0.9-0.8,1.3c-0.4,0.4-0.8,0.6-1.3,0.8
		c-0.5,0.2-1,0.3-1.7,0.3c-0.6,0-1.1-0.1-1.6-0.3c-0.5-0.2-0.9-0.5-1.3-0.8c-0.4-0.4-0.6-0.8-0.8-1.3c-0.2-0.5-0.3-1-0.3-1.6
		s0.1-1.1,0.3-1.6s0.5-0.9,0.8-1.3c0.4-0.4,0.8-0.6,1.3-0.8c0.5-0.2,1-0.3,1.6-0.3c0.4,0,0.8,0,1.1,0.1c0.4,0.1,0.7,0.2,1,0.4
		s0.6,0.4,0.8,0.6c0.2,0.2,0.4,0.5,0.6,0.8s0.3,0.6,0.4,1C107.3,39,107.3,39.4,107.3,39.8z M105.8,39.8c0-0.4-0.1-0.8-0.2-1.2
		c-0.1-0.3-0.3-0.6-0.5-0.9c-0.2-0.2-0.5-0.4-0.8-0.6s-0.7-0.2-1-0.2s-0.7,0.1-1,0.2c-0.3,0.1-0.6,0.3-0.8,0.6
		c-0.2,0.2-0.4,0.5-0.5,0.9c-0.1,0.3-0.2,0.7-0.2,1.2c0,0.4,0.1,0.8,0.2,1.2c0.1,0.3,0.3,0.6,0.5,0.9c0.2,0.2,0.5,0.4,0.8,0.6
		c0.3,0.1,0.7,0.2,1,0.2s0.7-0.1,1-0.2s0.6-0.3,0.8-0.6s0.4-0.5,0.5-0.9C105.7,40.6,105.8,40.2,105.8,39.8z"></path>
	<path fill="#FFFFFF" d="M107.7,35.8h1.2c0.1,0,0.2,0,0.3,0.1s0.1,0.1,0.2,0.2l1.9,4.9c0.1,0.2,0.1,0.3,0.2,0.5
		c0.1,0.2,0.1,0.4,0.2,0.6c0-0.2,0.1-0.4,0.1-0.6c0.1-0.2,0.1-0.4,0.2-0.5l1.9-4.9c0-0.1,0.1-0.2,0.2-0.2c0.1-0.1,0.2-0.1,0.3-0.1
		h1.2l-3.2,8h-1.3L107.7,35.8z"></path>
	<path fill="#FFFFFF" d="M122.7,43.8h-1.1c-0.1,0-0.2,0-0.3-0.1c-0.1-0.1-0.1-0.1-0.2-0.2l-0.6-1.6h-3.3l-0.6,1.6
		c0,0.1-0.1,0.2-0.2,0.2c-0.1,0.1-0.2,0.1-0.3,0.1H115l3.1-8h1.5L122.7,43.8z M117.6,40.8h2.5l-1-2.6c0-0.1-0.1-0.3-0.1-0.4
		c-0.1-0.2-0.1-0.3-0.2-0.5c-0.1,0.2-0.1,0.4-0.2,0.5c0,0.2-0.1,0.3-0.1,0.4L117.6,40.8z"></path>
	<path fill="#FFFFFF" d="M128.6,35.8V37h-2.4v6.7h-1.5V37h-2.4v-1.2H128.6z"></path>
	<path fill="#FFFFFF" d="M137.2,39.8c0,0.6-0.1,1.1-0.3,1.6c-0.2,0.5-0.5,0.9-0.8,1.3c-0.4,0.4-0.8,0.6-1.3,0.8
		c-0.5,0.2-1,0.3-1.7,0.3c-0.6,0-1.1-0.1-1.6-0.3c-0.5-0.2-0.9-0.5-1.3-0.8c-0.4-0.4-0.6-0.8-0.8-1.3c-0.2-0.5-0.3-1-0.3-1.6
		s0.1-1.1,0.3-1.6s0.5-0.9,0.8-1.3c0.4-0.4,0.8-0.6,1.3-0.8c0.5-0.2,1-0.3,1.6-0.3c0.4,0,0.8,0,1.1,0.1c0.4,0.1,0.7,0.2,1,0.4
		s0.6,0.4,0.8,0.6c0.2,0.2,0.4,0.5,0.6,0.8s0.3,0.6,0.4,1C137.2,39,137.2,39.4,137.2,39.8z M135.7,39.8c0-0.4-0.1-0.8-0.2-1.2
		c-0.1-0.3-0.3-0.6-0.5-0.9c-0.2-0.2-0.5-0.4-0.8-0.6s-0.7-0.2-1-0.2s-0.7,0.1-1,0.2c-0.3,0.1-0.6,0.3-0.8,0.6
		c-0.2,0.2-0.4,0.5-0.5,0.9c-0.1,0.3-0.2,0.7-0.2,1.2c0,0.4,0.1,0.8,0.2,1.2c0.1,0.3,0.3,0.6,0.5,0.9c0.2,0.2,0.5,0.4,0.8,0.6
		c0.3,0.1,0.7,0.2,1,0.2s0.7-0.1,1-0.2s0.6-0.3,0.8-0.6s0.4-0.5,0.5-0.9C135.7,40.6,135.7,40.2,135.7,39.8z"></path>
	<path fill="#FFFFFF" d="M140.3,40.7v3.1h-1.5v-8h2.4c0.5,0,1,0.1,1.4,0.2s0.7,0.3,1,0.5s0.4,0.4,0.5,0.7c0.1,0.3,0.2,0.6,0.2,0.9
		c0,0.3,0,0.5-0.1,0.8c-0.1,0.2-0.2,0.5-0.3,0.6c-0.1,0.2-0.3,0.4-0.5,0.5c-0.2,0.1-0.5,0.3-0.7,0.4c0.2,0.1,0.3,0.3,0.5,0.5l2,2.9
		h-1.3c-0.3,0-0.4-0.1-0.5-0.3l-1.7-2.5c-0.1-0.1-0.1-0.2-0.2-0.2c-0.1,0-0.2-0.1-0.3-0.1H140.3z M140.3,39.6h0.9
		c0.3,0,0.5,0,0.7-0.1c0.2-0.1,0.4-0.2,0.5-0.3c0.1-0.1,0.2-0.3,0.3-0.4c0.1-0.2,0.1-0.4,0.1-0.6c0-0.4-0.1-0.7-0.4-0.9
		c-0.3-0.2-0.7-0.3-1.2-0.3h-0.9V39.6z"></path>
	<path fill="#FFFFFF" d="M150.4,37.3c0,0.1-0.1,0.1-0.1,0.2c0,0-0.1,0.1-0.2,0.1c-0.1,0-0.2,0-0.2-0.1c-0.1-0.1-0.2-0.1-0.3-0.2
		c-0.1-0.1-0.3-0.1-0.4-0.2c-0.2-0.1-0.4-0.1-0.6-0.1c-0.2,0-0.4,0-0.5,0.1c-0.2,0-0.3,0.1-0.4,0.2c-0.1,0.1-0.2,0.2-0.2,0.3
		c-0.1,0.1-0.1,0.3-0.1,0.4c0,0.2,0.1,0.3,0.2,0.5c0.1,0.1,0.2,0.2,0.4,0.3c0.2,0.1,0.4,0.2,0.6,0.2c0.2,0.1,0.4,0.1,0.7,0.2
		c0.2,0.1,0.5,0.2,0.7,0.3c0.2,0.1,0.4,0.2,0.6,0.4c0.2,0.2,0.3,0.4,0.4,0.6s0.2,0.5,0.2,0.8c0,0.4-0.1,0.7-0.2,1
		c-0.1,0.3-0.3,0.6-0.5,0.8s-0.5,0.4-0.9,0.5s-0.7,0.2-1.2,0.2c-0.3,0-0.5,0-0.7-0.1c-0.2,0-0.5-0.1-0.7-0.2
		c-0.2-0.1-0.4-0.2-0.6-0.3c-0.2-0.1-0.4-0.3-0.5-0.4l0.4-0.7c0-0.1,0.1-0.1,0.1-0.1c0.1,0,0.1-0.1,0.2-0.1c0.1,0,0.2,0,0.3,0.1
		s0.2,0.2,0.4,0.3c0.1,0.1,0.3,0.2,0.5,0.2c0.2,0.1,0.4,0.1,0.7,0.1c0.4,0,0.7-0.1,1-0.3c0.2-0.2,0.3-0.5,0.3-0.9
		c0-0.2-0.1-0.4-0.2-0.5s-0.2-0.2-0.4-0.3c-0.2-0.1-0.4-0.2-0.6-0.2c-0.2-0.1-0.4-0.1-0.7-0.2c-0.2-0.1-0.5-0.2-0.7-0.3
		c-0.2-0.1-0.4-0.2-0.6-0.4s-0.3-0.4-0.4-0.6s-0.2-0.6-0.2-0.9c0-0.3,0.1-0.6,0.2-0.8c0.1-0.3,0.3-0.5,0.5-0.7
		c0.2-0.2,0.5-0.4,0.8-0.5c0.3-0.1,0.7-0.2,1.1-0.2c0.5,0,0.9,0.1,1.3,0.2c0.4,0.1,0.7,0.4,1,0.6L150.4,37.3z"></path>
	<path fill="#FFFFFF" d="M163,39.8c0,0.6-0.1,1.1-0.3,1.6c-0.2,0.5-0.5,0.9-0.8,1.3c-0.4,0.4-0.8,0.6-1.3,0.8
		c-0.5,0.2-1,0.3-1.7,0.3c-0.6,0-1.1-0.1-1.6-0.3c-0.5-0.2-0.9-0.5-1.3-0.8c-0.4-0.4-0.6-0.8-0.8-1.3c-0.2-0.5-0.3-1-0.3-1.6
		s0.1-1.1,0.3-1.6s0.5-0.9,0.8-1.3c0.4-0.4,0.8-0.6,1.3-0.8c0.5-0.2,1-0.3,1.6-0.3c0.4,0,0.8,0,1.1,0.1c0.4,0.1,0.7,0.2,1,0.4
		s0.6,0.4,0.8,0.6c0.2,0.2,0.4,0.5,0.6,0.8s0.3,0.6,0.4,1C163,39,163,39.4,163,39.8z M161.5,39.8c0-0.4-0.1-0.8-0.2-1.2
		c-0.1-0.3-0.3-0.6-0.5-0.9c-0.2-0.2-0.5-0.4-0.8-0.6s-0.7-0.2-1-0.2s-0.7,0.1-1,0.2c-0.3,0.1-0.6,0.3-0.8,0.6
		c-0.2,0.2-0.4,0.5-0.5,0.9c-0.1,0.3-0.2,0.7-0.2,1.2c0,0.4,0.1,0.8,0.2,1.2c0.1,0.3,0.3,0.6,0.5,0.9c0.2,0.2,0.5,0.4,0.8,0.6
		c0.3,0.1,0.7,0.2,1,0.2s0.7-0.1,1-0.2s0.6-0.3,0.8-0.6s0.4-0.5,0.5-0.9C161.4,40.6,161.5,40.2,161.5,39.8z"></path>
	<path fill="#FFFFFF" d="M169.6,35.8V37h-3.5v2.4h3v1.2h-3v3.2h-1.5v-8H169.6z"></path>
	<path fill="#FFFFFF" d="M179,35.8V37h-2.4v6.7h-1.5V37h-2.4v-1.2H179z"></path>
	<path fill="#FFFFFF" d="M185.3,35.8V37h-3.5v2.2h2.8v1.1h-2.8v2.2h3.5v1.2h-5v-8H185.3z"></path>
	<path fill="#FFFFFF" d="M192.2,41.9c0.1,0,0.2,0,0.2,0.1l0.6,0.6c-0.3,0.4-0.7,0.7-1.2,0.9s-1,0.3-1.7,0.3c-0.6,0-1.1-0.1-1.6-0.3
		s-0.9-0.5-1.2-0.8s-0.6-0.8-0.8-1.3c-0.2-0.5-0.3-1-0.3-1.6c0-0.6,0.1-1.1,0.3-1.6c0.2-0.5,0.5-0.9,0.8-1.3
		c0.3-0.4,0.8-0.6,1.2-0.8s1-0.3,1.6-0.3c0.6,0,1.1,0.1,1.5,0.3c0.4,0.2,0.8,0.4,1.1,0.7l-0.5,0.7c0,0-0.1,0.1-0.1,0.1
		c0,0-0.1,0-0.2,0c-0.1,0-0.1,0-0.2,0s-0.1-0.1-0.2-0.1s-0.2-0.1-0.2-0.2c-0.1-0.1-0.2-0.1-0.3-0.2s-0.3-0.1-0.4-0.1
		c-0.2,0-0.3,0-0.6,0c-0.4,0-0.7,0.1-1,0.2c-0.3,0.1-0.5,0.3-0.8,0.5c-0.2,0.2-0.4,0.5-0.5,0.9c-0.1,0.3-0.2,0.7-0.2,1.2
		c0,0.4,0.1,0.8,0.2,1.2c0.1,0.3,0.3,0.6,0.5,0.9s0.5,0.4,0.8,0.5c0.3,0.1,0.6,0.2,0.9,0.2c0.2,0,0.4,0,0.5,0c0.2,0,0.3-0.1,0.5-0.1
		c0.1,0,0.3-0.1,0.4-0.2c0.1-0.1,0.2-0.2,0.4-0.3c0,0,0.1-0.1,0.1-0.1C192.1,41.9,192.1,41.9,192.2,41.9z"></path>
	<path fill="#FFFFFF" d="M201,43.8h-1.5v-3.5h-3.7v3.5h-1.5v-8h1.5v3.4h3.7v-3.4h1.5V43.8z"></path>
	<path fill="#FFFFFF" d="M204,35.8c0,0,0.1,0,0.1,0c0,0,0.1,0,0.1,0.1c0,0,0.1,0.1,0.1,0.1l4.2,5.3c0-0.1,0-0.3,0-0.4s0-0.2,0-0.3
		v-4.8h1.3v8H209c-0.1,0-0.2,0-0.3-0.1c-0.1,0-0.2-0.1-0.2-0.2l-4.2-5.3c0,0.1,0,0.2,0,0.3c0,0.1,0,0.2,0,0.3v4.9H203v-8h0.8
		C203.9,35.8,203.9,35.8,204,35.8z"></path>
	<path fill="#FFFFFF" d="M219.4,39.8c0,0.6-0.1,1.1-0.3,1.6c-0.2,0.5-0.5,0.9-0.8,1.3c-0.4,0.4-0.8,0.6-1.3,0.8
		c-0.5,0.2-1,0.3-1.7,0.3c-0.6,0-1.1-0.1-1.6-0.3c-0.5-0.2-0.9-0.5-1.3-0.8c-0.4-0.4-0.6-0.8-0.8-1.3c-0.2-0.5-0.3-1-0.3-1.6
		s0.1-1.1,0.3-1.6s0.5-0.9,0.8-1.3c0.4-0.4,0.8-0.6,1.3-0.8c0.5-0.2,1-0.3,1.6-0.3c0.4,0,0.8,0,1.1,0.1c0.4,0.1,0.7,0.2,1,0.4
		s0.6,0.4,0.8,0.6c0.2,0.2,0.4,0.5,0.6,0.8s0.3,0.6,0.4,1C219.3,39,219.4,39.4,219.4,39.8z M217.9,39.8c0-0.4-0.1-0.8-0.2-1.2
		c-0.1-0.3-0.3-0.6-0.5-0.9c-0.2-0.2-0.5-0.4-0.8-0.6s-0.7-0.2-1-0.2s-0.7,0.1-1,0.2c-0.3,0.1-0.6,0.3-0.8,0.6
		c-0.2,0.2-0.4,0.5-0.5,0.9c-0.1,0.3-0.2,0.7-0.2,1.2c0,0.4,0.1,0.8,0.2,1.2c0.1,0.3,0.3,0.6,0.5,0.9c0.2,0.2,0.5,0.4,0.8,0.6
		c0.3,0.1,0.7,0.2,1,0.2s0.7-0.1,1-0.2s0.6-0.3,0.8-0.6s0.4-0.5,0.5-0.9C217.8,40.6,217.9,40.2,217.9,39.8z"></path>
	<path fill="#FFFFFF" d="M222.4,42.5h3.2v1.2h-4.7v-8h1.5V42.5z"></path>
	<path fill="#FFFFFF" d="M234.2,39.8c0,0.6-0.1,1.1-0.3,1.6c-0.2,0.5-0.5,0.9-0.8,1.3c-0.4,0.4-0.8,0.6-1.3,0.8
		c-0.5,0.2-1,0.3-1.7,0.3c-0.6,0-1.1-0.1-1.6-0.3c-0.5-0.2-0.9-0.5-1.3-0.8c-0.4-0.4-0.6-0.8-0.8-1.3c-0.2-0.5-0.3-1-0.3-1.6
		s0.1-1.1,0.3-1.6s0.5-0.9,0.8-1.3c0.4-0.4,0.8-0.6,1.3-0.8c0.5-0.2,1-0.3,1.6-0.3c0.4,0,0.8,0,1.1,0.1c0.4,0.1,0.7,0.2,1,0.4
		s0.6,0.4,0.8,0.6c0.2,0.2,0.4,0.5,0.6,0.8s0.3,0.6,0.4,1C234.2,39,234.2,39.4,234.2,39.8z M232.7,39.8c0-0.4-0.1-0.8-0.2-1.2
		c-0.1-0.3-0.3-0.6-0.5-0.9c-0.2-0.2-0.5-0.4-0.8-0.6s-0.7-0.2-1-0.2s-0.7,0.1-1,0.2c-0.3,0.1-0.6,0.3-0.8,0.6
		c-0.2,0.2-0.4,0.5-0.5,0.9c-0.1,0.3-0.2,0.7-0.2,1.2c0,0.4,0.1,0.8,0.2,1.2c0.1,0.3,0.3,0.6,0.5,0.9c0.2,0.2,0.5,0.4,0.8,0.6
		c0.3,0.1,0.7,0.2,1,0.2s0.7-0.1,1-0.2s0.6-0.3,0.8-0.6s0.4-0.5,0.5-0.9C232.7,40.6,232.7,40.2,232.7,39.8z"></path>
	<path fill="#FFFFFF" d="M241.1,43.6c-0.5,0.1-0.9,0.2-1.5,0.2c-0.6,0-1.2-0.1-1.8-0.3c-0.5-0.2-1-0.5-1.3-0.8s-0.7-0.8-0.9-1.3
		c-0.2-0.5-0.3-1-0.3-1.6c0-0.6,0.1-1.1,0.3-1.6c0.2-0.5,0.5-0.9,0.8-1.3c0.4-0.4,0.8-0.6,1.3-0.8c0.5-0.2,1.1-0.3,1.7-0.3
		c0.3,0,0.6,0,0.9,0.1c0.3,0.1,0.5,0.1,0.8,0.2c0.2,0.1,0.5,0.2,0.7,0.3c0.2,0.1,0.4,0.3,0.5,0.4l-0.4,0.7c-0.1,0.1-0.2,0.2-0.3,0.2
		s-0.2,0-0.3-0.1c-0.1-0.1-0.2-0.1-0.4-0.2c-0.1-0.1-0.3-0.1-0.4-0.2s-0.3-0.1-0.5-0.1c-0.2,0-0.4,0-0.6,0c-0.4,0-0.7,0.1-1.1,0.2
		c-0.3,0.1-0.6,0.3-0.8,0.6s-0.4,0.5-0.5,0.9s-0.2,0.7-0.2,1.2c0,0.5,0.1,0.9,0.2,1.2c0.1,0.4,0.3,0.7,0.6,0.9
		c0.2,0.2,0.5,0.4,0.9,0.6c0.3,0.1,0.7,0.2,1.1,0.2c0.3,0,0.6,0,0.8-0.1c0.2-0.1,0.5-0.1,0.7-0.3v-1.4h-1c-0.1,0-0.2,0-0.2-0.1
		s-0.1-0.1-0.1-0.2v-0.8h2.6V43C242,43.3,241.5,43.5,241.1,43.6z"></path>
	<path fill="#FFFFFF" d="M247.3,40.7v3.1h-1.5v-3.1l-2.9-4.9h1.3c0.1,0,0.2,0,0.3,0.1s0.1,0.1,0.2,0.2l1.5,2.7
		c0.1,0.2,0.2,0.3,0.2,0.5c0.1,0.1,0.1,0.3,0.2,0.4c0-0.1,0.1-0.3,0.2-0.4c0.1-0.1,0.1-0.3,0.2-0.4l1.4-2.7c0-0.1,0.1-0.2,0.2-0.2
		c0.1-0.1,0.2-0.1,0.3-0.1h1.3L247.3,40.7z"></path>
</g>
</svg>
