<?xml version="1.0" encoding="UTF-8"?>
<!-- Generator: Adobe Illustrator 21.0.0, SVG Export Plug-In . SVG Version: 6.00 Build 0)  -->
<svg version="1.1" xmlns="http://www.w3.org/2000/svg" xmlns:xlink="http://www.w3.org/1999/xlink" x="0px" y="0px" viewBox="0 0 532 122" style="enable-background:new 0 0 532 122;" xml:space="preserve">
<style type="text/css">
	.st0{fill:none;}
	.st1{fill:none;stroke:#231F20;stroke-width:1.2;}
	.st2{fill:#87AD3E;}
	.st3{fill:#1B80BE;}
	.st4{fill:#166698;}
	.st5{fill:#6C8A32;}
	.st6{display:none;opacity:0.15;}
	.st7{display:inline;}
	.st8{opacity:0.15;}
	.st9{fill:#343433;}
	.st10{display:none;}
	.st11{fill:none;stroke:#231F20;stroke-miterlimit:10;}
	.st12{fill:url(#SVGID_1_);}
	.st13{fill:none;stroke:#231F20;stroke-width:0.5;stroke-miterlimit:10;}
	.st14{fill:#231F20;}
	.st15{fill:url(#SVGID_2_);}
	.st16{fill:url(#SVGID_3_);}
	.st17{fill:url(#SVGID_4_);}
	.st18{fill:url(#SVGID_5_);}
	.st19{fill:url(#SVGID_6_);}
	.st20{fill:url(#SVGID_7_);}
	.st21{fill:url(#SVGID_8_);}
	.st22{fill:none;stroke:#231F20;stroke-linecap:round;stroke-miterlimit:10;}
	.st23{fill:none;stroke:#231F20;stroke-linecap:round;stroke-miterlimit:10;stroke-dasharray:1.0113,2.0225;}
	.st24{fill:none;stroke:#231F20;stroke-linecap:round;stroke-miterlimit:10;stroke-dasharray:1.0146,2.0292;}
	.st25{fill:none;stroke:#231F20;stroke-linecap:round;stroke-miterlimit:10;stroke-dasharray:1.0023,2.0046;}
	.st26{fill:url(#SVGID_9_);}
	.st27{fill:url(#SVGID_10_);}
	.st28{fill:#1869A2;}
	.st29{fill:#3A8FCD;}
	.st30{fill:url(#SVGID_11_);}
	.st31{opacity:0.2;}
	.st32{font-family:'NeuropolNovaCdLt-Regular';}
	.st33{font-size:52.2735px;}
	.st34{display:inline;fill:#343433;}
	.st35{fill:url(#SVGID_12_);}
	.st36{fill:url(#SVGID_13_);}
	.st37{font-family:'Avenir-Light';}
	.st38{font-size:11px;}
	.st39{fill:url(#SVGID_14_);}
	.st40{fill:url(#SVGID_15_);}
	.st41{fill:url(#SVGID_16_);}
	.st42{fill:url(#SVGID_17_);}
	.st43{fill:url(#SVGID_18_);}
	.st44{fill:url(#SVGID_19_);}
	.st45{font-family:'MyriadPro-Regular';}
	.st46{font-size:12px;}
	.st47{fill:none;stroke:#231F20;stroke-linecap:round;stroke-miterlimit:10;stroke-dasharray:1.0102,2.0204;}
</style>
<pattern x="-91.7" y="-62" width="72" height="72" patternUnits="userSpaceOnUse" id="_x36__lpi_10_x25_" viewBox="72.2 -72 72 72" style="overflow:visible;">
	<g>
		<rect x="72.2" y="-72" class="st0" width="72" height="72"/>
		<g>
			<line class="st1" x1="144" y1="-6" x2="216.5" y2="-6"/>
			<line class="st1" x1="144" y1="-30" x2="216.5" y2="-30"/>
			<line class="st1" x1="144" y1="-54" x2="216.5" y2="-54"/>
			<line class="st1" x1="144" y1="-18" x2="216.5" y2="-18"/>
			<line class="st1" x1="144" y1="-42" x2="216.5" y2="-42"/>
			<line class="st1" x1="144" y1="-66" x2="216.5" y2="-66"/>
		</g>
		<g>
			<line class="st1" x1="72" y1="-6" x2="144.5" y2="-6"/>
			<line class="st1" x1="72" y1="-30" x2="144.5" y2="-30"/>
			<line class="st1" x1="72" y1="-54" x2="144.5" y2="-54"/>
			<line class="st1" x1="72" y1="-18" x2="144.5" y2="-18"/>
			<line class="st1" x1="72" y1="-42" x2="144.5" y2="-42"/>
			<line class="st1" x1="72" y1="-66" x2="144.5" y2="-66"/>
		</g>
		<g>
			<line class="st1" x1="0" y1="-6" x2="72.5" y2="-6"/>
			<line class="st1" x1="0" y1="-30" x2="72.5" y2="-30"/>
			<line class="st1" x1="0" y1="-54" x2="72.5" y2="-54"/>
			<line class="st1" x1="0" y1="-18" x2="72.5" y2="-18"/>
			<line class="st1" x1="0" y1="-42" x2="72.5" y2="-42"/>
			<line class="st1" x1="0" y1="-66" x2="72.5" y2="-66"/>
		</g>
	</g>
</pattern>
<g id="FLAT_Logo">
</g>
<g id="FLAT_Specs" class="st10">
</g>
<g id="FULL_Logo">
	<g>
		<g id="Logo">
			<linearGradient id="SVGID_1_" gradientUnits="userSpaceOnUse" x1="49.4903" y1="120.2337" x2="49.4903" y2="2.6097">
				<stop offset="0" style="stop-color:#78983D"/>
				<stop offset="1" style="stop-color:#99C13D"/>
			</linearGradient>
			<path class="st12" d="M30.6,4.9L30.6,4.9C30.6,4.9,30.6,4.9,30.6,4.9c-4,0-7.3,3.3-7.3,7.3c0,2.6,1.3,4.8,3.3,6.1     c1.1,0.7,2.5,1.1,3.9,1.1c0,0,0,0,0,0l0,0H61v33.1h14.6l0-45.5l0-2.2H30.6z"/>
			<linearGradient id="SVGID_2_" gradientUnits="userSpaceOnUse" x1="40.3484" y1="117.0938" x2="40.3484" y2="-0.189">
				<stop offset="0" style="stop-color:#78983D"/>
				<stop offset="1" style="stop-color:#99C13D"/>
			</linearGradient>
			<path class="st15" d="M61,67.1v29.8c0,3.1-2.5,5.6-5.6,5.6H25.3c-1,0-1.9-0.2-2.7-0.7c-1.7-0.9-2.9-2.8-2.9-4.9     c0,0,0-17.8,0-17.8c0-1.5-0.4-2.8-1.2-3.9c-1.3-2-3.6-3.4-6.1-3.4c-4,0-7.3,3.3-7.3,7.3v17.8c0,6.1,2.7,11.6,7,15.3     c3.5,3,8.1,4.8,13.1,4.8h30.2c11.1,0,20.1-9,20.1-20.2l0-29.8H61z"/>
			<path class="st28" d="M116.3,30.2c-1.3-2-3.6-3.3-6.1-3.3H75.6v14.6h2.1l32.4,0c4,0,7.3-3.3,7.3-7.3     C117.5,32.6,117,31.3,116.3,30.2z"/>
			<path class="st29" d="M37,78.3L37,78.3C37,78.3,37,78.3,37,78.3c-4,0-7.3,3.3-7.3,7.3c0,2.6,1.3,4.8,3.4,6.1     c1.1,0.7,2.5,1.2,3.9,1.2c0,0,0,0,0,0l0,0l24,0V78.3H37z"/>
			<linearGradient id="SVGID_3_" gradientUnits="userSpaceOnUse" x1="61.2818" y1="92.8614" x2="61.2818" y2="26.8144">
				<stop offset="0.2" style="stop-color:#3A8FCD"/>
				<stop offset="0.8" style="stop-color:#1869A2"/>
			</linearGradient>
			<path class="st16" d="M112.6,59.6c-3.7-4.3-9.2-7-15.3-7H75.6H63.2H61H25.3c-1,0-1.9-0.3-2.7-0.7c-1.7-0.9-2.9-2.8-2.9-4.9     c0-3.1,2.5-5.6,5.6-5.6H61V26.8H25.3c-11.1,0-20.1,9-20.1,20.2c0,6.1,2.7,11.6,7,15.3c3.5,3,8.1,4.9,13.1,4.9H61h2.2h12.4h21.7     c2.1,0,3.9,1.1,4.9,2.9c0.4,0.8,0.7,1.7,0.7,2.7c0,3.1-2.5,5.6-5.6,5.6H75.6v14.6h2.2h19.5c11.1,0,20.1-9,20.1-20.2     C117.5,67.7,115.6,63.1,112.6,59.6z"/>
			<rect x="75.6" y="78.3" class="st31" width="2.2" height="14.6"/>
			<rect x="61" y="67.1" class="st31" width="14.6" height="2.2"/>
			<rect x="75.6" y="26.8" class="st31" width="2.2" height="14.6"/>
		</g>
	</g>
	<g>
		<g id="Shadow">
			<g id="Shadow_Type_1_" class="st6">
				<text transform="matrix(1 0 0 1 319.3123 79.3994)" class="st7 st32 st33">Systems</text>
				<text transform="matrix(1 0 0 1 132.7927 79.3364)" class="st7 st32 st33">Jaycon</text>
			</g>
			<g id="Shadow_Expanded" class="st8">
				<g>
					<path d="M325.5,79.4c-0.8,0-1.3-0.5-1.3-1.6c0-1,0.5-1.5,1.3-1.5h16.6c2.5,0,3.9-1.9,3.9-5.7v-4.7c0-3.2-1.6-5-4.9-5h-9.9       c-5.3,0-8.1-2.1-8.1-6.3v-6.7c0-5,2.4-7.5,7-7.5h0.6c0.7,0,1.2,0.5,1.2,1.7c0,1-0.5,1.5-1.2,1.5h-1.2c-2,0-3,1.6-3,4.7V54       c0,2.6,1.4,4,4.1,4h10.1c5.7,0,8.6,2.4,8.6,7.4v6.8c0,4.9-2.6,7.2-7.7,7.2H325.5z"/>
					<path d="M365.5,79.4c-5.8,0-8.7-2.7-8.7-8.2V51.1c0-1,0.5-1.6,1.6-1.6c0.9,0,1.5,0.5,1.5,1.6v20.1c0,3.5,1.7,5.2,5.1,5.2h10.4       c0.8,0,1.2,0.5,1.2,1.5c0,0.9-0.4,1.5-1.2,1.5H365.5z M369.4,87.8c-0.8,0-1.2-0.5-1.2-1.5c0-0.9,0.3-1.5,1.2-1.5h4.5       c2.8,0,4.2-1.6,4.2-4.9V51.1c0-1,0.6-1.6,1.5-1.6c0.9,0,1.5,0.5,1.5,1.6v28.8c0,5.2-2.4,7.8-7.5,7.8H369.4z"/>
					<path d="M389.5,79.4c-0.9,0-1.4-0.4-1.4-1.4c0-1,0.5-1.6,1.4-1.6h15.7c1.5,0,2.2-1,2.2-3.1v-4.4c0-2-0.9-3-2.7-3h-9.9       c-4.4,0-6.7-1.9-6.7-5.7v-4.7c0-3.6,2.1-5.5,6.4-5.5h0.4c0.9,0,1.3,0.5,1.3,1.5c0,0.9-0.4,1.4-1.3,1.4h-1.3       c-1.6,0-2.5,0.9-2.5,2.6v4.5c0,1.9,1,2.9,3.1,2.9h10.1c4.1,0,6.2,2,6.2,5.9v4.4c0,4.1-2,6.1-6,6.1H389.5z"/>
					<path d="M417.5,41.8c0-1.1,0.5-1.6,1.6-1.6c0.9,0,1.5,0.5,1.5,1.6v8.3h6.9c0.9,0,1.4,0.5,1.4,1.5c0,0.9-0.5,1.4-1.4,1.4h-6.9       v25c0,1.2-0.5,1.7-1.5,1.7c-1,0-1.6-0.5-1.6-1.7V41.8z"/>
					<path d="M441.1,79.4c-6.2,0-9.3-2.9-9.3-8.8V58.8c0-5.8,3.1-8.7,9.3-8.7h7.6c5.1,0,7.7,2.5,7.7,7.4V65c0,1.1-0.5,1.7-1.3,1.7       h-17c-0.8,0-1.3-0.5-1.3-1.6c0-1,0.5-1.6,1.3-1.6h15.4V58c0-3.3-1.3-5-4-5h-9.1c-3.6,0-5.4,1.8-5.4,5.3v13       c0,3.5,1.8,5.1,5.4,5.1h3.7c0.8,0,1.3,0.5,1.3,1.5c0,0.9-0.4,1.5-1.3,1.5H441.1z"/>
					<path d="M494.5,58.3c0-3.5-1.9-5.3-5.6-5.3h-16.5c-3.8,0-5.8,1.8-5.8,5.3V78c0,1.2-0.5,1.7-1.5,1.7c-1,0-1.6-0.5-1.6-1.7V59.1       c0-6,3-9,8.8-9h16.5c5.8,0,8.8,3,8.8,9V78c0,1.2-0.5,1.7-1.6,1.7s-1.6-0.5-1.6-1.7V58.3z M479.1,57.6c0-1.4,0.5-1.9,1.6-1.9       c1,0,1.5,0.6,1.5,1.9V78c0,1.2-0.5,1.7-1.5,1.7c-1,0-1.6-0.5-1.6-1.7V57.6z"/>
					<path d="M505.8,79.4c-0.9,0-1.4-0.4-1.4-1.4c0-1,0.5-1.6,1.4-1.6h15.7c1.5,0,2.2-1,2.2-3.1v-4.4c0-2-0.9-3-2.7-3h-9.9       c-4.4,0-6.7-1.9-6.7-5.7v-4.7c0-3.6,2.1-5.5,6.4-5.5h0.4c0.9,0,1.3,0.5,1.3,1.5c0,0.9-0.4,1.4-1.3,1.4H510       c-1.6,0-2.5,0.9-2.5,2.6v4.5c0,1.9,1,2.9,3.1,2.9h10.1c4.1,0,6.2,2,6.2,5.9v4.4c0,4.1-2,6.1-6,6.1H505.8z"/>
				</g>
				<g>
					<path d="M135.3,79.3c-0.9,0-1.3-0.5-1.3-1.6c0-1,0.4-1.6,1.3-1.6h2.6c2.5,0,3.7-1.6,3.7-4.7V41.7c0-1,0.6-1.6,1.7-1.6       c1,0,1.6,0.5,1.6,1.6v29.3c0,5.6-2.4,8.3-7,8.3H135.3z"/>
					<path d="M174,55.7c0-1.8-0.5-2.7-1.6-2.7h-11.2c-3.8,0-5.6,1.8-5.6,5.2v12.8c0,3.7,1.6,5.4,4.6,5.4h10.1c0.8,0,1.2,0.5,1.2,1.5       c0,0.9-0.4,1.5-1.2,1.5h-9.6c-5.5,0-8.3-2.8-8.3-8.5V58c0-5.3,3.1-7.9,9.3-7.9h9.8c3.7,0,5.5,2.2,5.5,6.6v21.3       c0,1.2-0.5,1.7-1.4,1.7c-1.1,0-1.7-0.5-1.7-1.7V55.7z"/>
					<path d="M193.7,79.3c-5.8,0-8.7-2.7-8.7-8.2V51.1c0-1,0.5-1.6,1.6-1.6c0.9,0,1.5,0.5,1.5,1.6v20.1c0,3.5,1.7,5.2,5.1,5.2h10.4       c0.8,0,1.2,0.5,1.2,1.5c0,0.9-0.4,1.5-1.2,1.5H193.7z M197.7,87.7c-0.8,0-1.1-0.5-1.1-1.5c0-0.9,0.3-1.5,1.1-1.5h4.5       c2.8,0,4.2-1.6,4.2-4.9V51.1c0-1,0.6-1.6,1.5-1.6c0.9,0,1.5,0.5,1.5,1.6v28.8c0,5.2-2.4,7.8-7.5,7.8H197.7z"/>
					<path d="M226.3,79.3c-6,0-9-2.8-9-8.3V58.3c0-5.5,2.8-8.3,8.2-8.3h12.5c1,0,1.4,0.5,1.4,1.4c0,1-0.4,1.5-1.4,1.5h-13       c-3,0-4.6,1.8-4.6,5.2v12.6c0,3.9,1.7,5.6,5.3,5.6h12.3c0.8,0,1.2,0.5,1.2,1.6c0,1-0.4,1.4-1.2,1.4H226.3z"/>
					<path d="M269.3,61.2c0,1.4-0.5,1.9-1.6,1.9c-1.1,0-1.6-0.6-1.6-1.9v-3c0-3.6-1.7-5.3-4.9-5.3h-7.7c-3.6,0-5.4,2-5.4,5.9v2.5       c0,1.4-0.5,1.9-1.5,1.9c-1,0-1.6-0.6-1.6-1.9v-2.5c0-5.9,3-8.8,8.9-8.8h6.7c5.7,0,8.6,2.9,8.6,8.8V61.2z M253.8,79.3       c-5.8,0-8.8-2.9-8.8-8.6v-2.6c0-1.3,0.5-2,1.6-2c0.9,0,1.5,0.7,1.5,2v2.6c0,3.9,1.8,5.6,5.4,5.6h7.7c3.2,0,4.9-1.8,4.9-5.6       v-2.6c0-1.3,0.5-2,1.6-2c1,0,1.6,0.7,1.6,2v2.6c0,5.8-2.9,8.6-8.6,8.6H253.8z"/>
					<path d="M298,57.5c0-3.1-1.6-4.6-4.7-4.6h-8.5c-3.2,0-4.9,1.6-4.9,4.7v20.3c0,1.2-0.4,1.7-1.4,1.7c-1.2,0-1.7-0.5-1.7-1.7V57.7       c0-5.1,3-7.7,8.9-7.7h6.5c5.8,0,8.8,2.6,8.8,7.6v20.3c0,1.2-0.5,1.7-1.6,1.7c-1,0-1.5-0.5-1.5-1.7V57.5z"/>
				</g>
			</g>
		</g>
		<g id="Jaycon_Systems">
			<g id="Systems_Expanded">
				<path class="st9" d="M323.5,77.4c-0.8,0-1.3-0.5-1.3-1.6c0-1,0.5-1.5,1.3-1.5h16.6c2.5,0,3.9-1.9,3.9-5.7v-4.7      c0-3.2-1.6-5-4.9-5h-9.9c-5.3,0-8.1-2.1-8.1-6.3v-6.7c0-5,2.4-7.5,7-7.5h0.6c0.7,0,1.2,0.5,1.2,1.7c0,1-0.5,1.5-1.2,1.5h-1.2      c-2,0-3,1.6-3,4.7V52c0,2.6,1.4,4,4.1,4h10.1c5.7,0,8.6,2.4,8.6,7.4v6.8c0,4.9-2.6,7.2-7.7,7.2H323.5z"/>
				<path class="st9" d="M363.5,77.4c-5.8,0-8.7-2.7-8.7-8.2V49.1c0-1,0.5-1.6,1.6-1.6c0.9,0,1.5,0.5,1.5,1.6v20.1      c0,3.5,1.7,5.2,5.1,5.2h10.4c0.8,0,1.2,0.5,1.2,1.5c0,0.9-0.4,1.5-1.2,1.5H363.5z M367.4,85.8c-0.8,0-1.2-0.5-1.2-1.5      c0-0.9,0.3-1.5,1.2-1.5h4.5c2.8,0,4.2-1.6,4.2-4.9V49.1c0-1,0.6-1.6,1.5-1.6c0.9,0,1.5,0.5,1.5,1.6v28.8c0,5.2-2.4,7.8-7.5,7.8      H367.4z"/>
				<path class="st9" d="M387.5,77.4c-0.9,0-1.4-0.4-1.4-1.4c0-1,0.5-1.6,1.4-1.6h15.7c1.5,0,2.2-1,2.2-3.1v-4.4c0-2-0.9-3-2.7-3      h-9.9c-4.4,0-6.7-1.9-6.7-5.7v-4.7c0-3.6,2.1-5.5,6.4-5.5h0.4c0.9,0,1.3,0.5,1.3,1.5c0,0.9-0.4,1.4-1.3,1.4h-1.3      c-1.6,0-2.5,0.9-2.5,2.6v4.5c0,1.9,1,2.9,3.1,2.9h10.1c4.1,0,6.2,2,6.2,5.9v4.4c0,4.1-2,6.1-6,6.1H387.5z"/>
				<path class="st9" d="M415.5,39.8c0-1.1,0.5-1.6,1.6-1.6c0.9,0,1.5,0.5,1.5,1.6v8.3h6.9c0.9,0,1.4,0.5,1.4,1.5      c0,0.9-0.5,1.4-1.4,1.4h-6.9v25c0,1.2-0.5,1.7-1.5,1.7c-1,0-1.6-0.5-1.6-1.7V39.8z"/>
				<path class="st9" d="M439.1,77.4c-6.2,0-9.3-2.9-9.3-8.8V56.8c0-5.8,3.1-8.7,9.3-8.7h7.6c5.1,0,7.7,2.5,7.7,7.4V63      c0,1.1-0.5,1.7-1.3,1.7h-17c-0.8,0-1.3-0.5-1.3-1.6c0-1,0.5-1.6,1.3-1.6h15.4V56c0-3.3-1.3-5-4-5h-9.1c-3.6,0-5.4,1.8-5.4,5.3      v13c0,3.5,1.8,5.1,5.4,5.1h3.7c0.8,0,1.3,0.5,1.3,1.5c0,0.9-0.4,1.5-1.3,1.5H439.1z"/>
				<path class="st9" d="M492.5,56.3c0-3.5-1.9-5.3-5.6-5.3h-16.5c-3.8,0-5.8,1.8-5.8,5.3V76c0,1.2-0.5,1.7-1.5,1.7      c-1,0-1.6-0.5-1.6-1.7V57.1c0-6,3-9,8.8-9h16.5c5.8,0,8.8,3,8.8,9V76c0,1.2-0.5,1.7-1.6,1.7s-1.6-0.5-1.6-1.7V56.3z M477.1,55.6      c0-1.4,0.5-1.9,1.6-1.9c1,0,1.5,0.6,1.5,1.9V76c0,1.2-0.5,1.7-1.5,1.7c-1,0-1.6-0.5-1.6-1.7V55.6z"/>
				<path class="st9" d="M503.8,77.4c-0.9,0-1.4-0.4-1.4-1.4c0-1,0.5-1.6,1.4-1.6h15.7c1.5,0,2.2-1,2.2-3.1v-4.4c0-2-0.9-3-2.7-3      h-9.9c-4.4,0-6.7-1.9-6.7-5.7v-4.7c0-3.6,2.1-5.5,6.4-5.5h0.4c0.9,0,1.3,0.5,1.3,1.5c0,0.9-0.4,1.4-1.3,1.4H508      c-1.6,0-2.5,0.9-2.5,2.6v4.5c0,1.9,1,2.9,3.1,2.9h10.1c4.1,0,6.2,2,6.2,5.9v4.4c0,4.1-2,6.1-6,6.1H503.8z"/>
			</g>
			<g id="Jaycon_Expanded">
				<path class="st9" d="M133.3,77.3c-0.9,0-1.3-0.5-1.3-1.6c0-1,0.4-1.6,1.3-1.6h2.6c2.5,0,3.7-1.6,3.7-4.7V39.7      c0-1,0.6-1.6,1.7-1.6c1,0,1.6,0.5,1.6,1.6v29.3c0,5.6-2.4,8.3-7,8.3H133.3z"/>
				<path class="st9" d="M172,53.7c0-1.8-0.5-2.7-1.6-2.7h-11.2c-3.8,0-5.6,1.8-5.6,5.2v12.8c0,3.7,1.6,5.4,4.6,5.4h10.1      c0.8,0,1.2,0.5,1.2,1.5c0,0.9-0.4,1.5-1.2,1.5h-9.6c-5.5,0-8.3-2.8-8.3-8.5V56c0-5.3,3.1-7.9,9.3-7.9h9.8c3.7,0,5.5,2.2,5.5,6.6      v21.3c0,1.2-0.5,1.7-1.4,1.7c-1.1,0-1.7-0.5-1.7-1.7V53.7z"/>
				<path class="st9" d="M191.7,77.3c-5.8,0-8.7-2.7-8.7-8.2V49.1c0-1,0.5-1.6,1.6-1.6c0.9,0,1.5,0.5,1.5,1.6v20.1      c0,3.5,1.7,5.2,5.1,5.2h10.4c0.8,0,1.2,0.5,1.2,1.5c0,0.9-0.4,1.5-1.2,1.5H191.7z M195.7,85.7c-0.8,0-1.1-0.5-1.1-1.5      c0-0.9,0.3-1.5,1.1-1.5h4.5c2.8,0,4.2-1.6,4.2-4.9V49.1c0-1,0.6-1.6,1.5-1.6c0.9,0,1.5,0.5,1.5,1.6v28.8c0,5.2-2.4,7.8-7.5,7.8      H195.7z"/>
				<path class="st9" d="M224.3,77.3c-6,0-9-2.8-9-8.3V56.3c0-5.5,2.8-8.3,8.2-8.3h12.5c1,0,1.4,0.5,1.4,1.4c0,1-0.4,1.5-1.4,1.5      h-13c-3,0-4.6,1.8-4.6,5.2v12.6c0,3.9,1.7,5.6,5.3,5.6h12.3c0.8,0,1.2,0.5,1.2,1.6c0,1-0.4,1.4-1.2,1.4H224.3z"/>
				<path class="st9" d="M267.3,59.2c0,1.4-0.5,1.9-1.6,1.9c-1.1,0-1.6-0.6-1.6-1.9v-3c0-3.6-1.7-5.3-4.9-5.3h-7.7      c-3.6,0-5.4,2-5.4,5.9v2.5c0,1.4-0.5,1.9-1.5,1.9c-1,0-1.6-0.6-1.6-1.9v-2.5c0-5.9,3-8.8,8.9-8.8h6.7c5.7,0,8.6,2.9,8.6,8.8      V59.2z M251.8,77.3c-5.8,0-8.8-2.9-8.8-8.6v-2.6c0-1.3,0.5-2,1.6-2c0.9,0,1.5,0.7,1.5,2v2.6c0,3.9,1.8,5.6,5.4,5.6h7.7      c3.2,0,4.9-1.8,4.9-5.6v-2.6c0-1.3,0.5-2,1.6-2c1,0,1.6,0.7,1.6,2v2.6c0,5.8-2.9,8.6-8.6,8.6H251.8z"/>
				<path class="st9" d="M296,55.5c0-3.1-1.6-4.6-4.7-4.6h-8.5c-3.2,0-4.9,1.6-4.9,4.7v20.3c0,1.2-0.4,1.7-1.4,1.7      c-1.2,0-1.7-0.5-1.7-1.7V55.7c0-5.1,3-7.7,8.9-7.7h6.5c5.8,0,8.8,2.6,8.8,7.6v20.3c0,1.2-0.5,1.7-1.6,1.7c-1,0-1.5-0.5-1.5-1.7      V55.5z"/>
			</g>
			<g id="Jaycon_Systems_Text_Type" class="st10">
				<text transform="matrix(1 0 0 1 317.3123 77.3994)" class="st34 st32 st33">Systems</text>
				<text transform="matrix(1 0 0 1 130.7927 77.3364)" class="st34 st32 st33">Jaycon</text>
			</g>
		</g>
	</g>
</g>
<g id="FULL_Specs" class="st10">
	<g id="Unit_of_measurement_2_" class="st7">
		<g id="_x31_X">
			<g>
				<g>
					<line class="st13" x1="5.4" y1="1.6" x2="19.4" y2="1.6"/>
					<g>
						<rect x="5.1" y="0" class="st14" width="0.5" height="3.2"/>
					</g>
					<g>
						<rect x="19.2" y="0" class="st14" width="0.5" height="3.2"/>
					</g>
				</g>
			</g>
			<g>
				<g>
					<line class="st13" x1="1.8" y1="19.2" x2="1.8" y2="5.2"/>
					<g>
						<rect x="0.2" y="19" class="st14" width="3.2" height="0.5"/>
					</g>
					<g>
						<rect x="0.2" y="4.9" class="st14" width="3.2" height="0.5"/>
					</g>
				</g>
			</g>
			
				<pattern id="SVGID_4_" xlink:href="#_x36__lpi_10_x25_" patternTransform="matrix(0.5798 -0.5798 7.778200e-02 7.778200e-02 -2608.8489 -11313.8574)">
			</pattern>
			<rect x="5.1" y="4.9" class="st17" width="14.6" height="14.6"/>
		</g>
		<g id="_x31_.5X">
			
				<pattern id="SVGID_5_" xlink:href="#_x36__lpi_10_x25_" patternTransform="matrix(0.5798 -0.5798 7.778200e-02 7.778200e-02 -2626.3523 -11342.6846)">
			</pattern>
			<rect x="198.4" y="19.5" class="st18" width="21.9" height="21.9"/>
			<g>
				<g>
					<line class="st13" x1="198.4" y1="14.5" x2="220.1" y2="14.5"/>
					<g>
						<rect x="198.2" y="12.9" class="st14" width="0.5" height="3.2"/>
					</g>
					<g>
						<rect x="219.8" y="12.9" class="st14" width="0.5" height="3.2"/>
					</g>
				</g>
			</g>
			<text transform="matrix(1 0 0 1 202.2844 10.3355)" class="st37 st38">1.5</text>
			<g>
				<g>
					<line class="st13" x1="193" y1="41.3" x2="193" y2="19.6"/>
					<g>
						<rect x="191.4" y="41" class="st14" width="3.2" height="0.5"/>
					</g>
					<g>
						<rect x="191.4" y="19.4" class="st14" width="3.2" height="0.5"/>
					</g>
				</g>
			</g>
			<text transform="matrix(0 -1 1 0 188.8225 37.4092)" class="st37 st38">1.5</text>
		</g>
	</g>
	<g id="Squares__x28_unit_of_measurement_x29__2_" class="st7">
		
			<pattern id="SVGID_6_" xlink:href="#_x36__lpi_10_x25_" patternTransform="matrix(0.5798 -0.5798 7.778200e-02 7.778200e-02 -2594.3025 -11328.1123)">
		</pattern>
		<rect x="117.4" y="4.9" class="st19" width="14.6" height="14.6"/>
		
			<pattern id="SVGID_7_" xlink:href="#_x36__lpi_10_x25_" patternTransform="matrix(0.5798 -0.5798 7.778200e-02 7.778200e-02 -2629.0063 -11377.1104)">
		</pattern>
		<rect x="299.1" y="4.9" class="st20" width="21.9" height="21.9"/>
	</g>
	<g id="Wordmark_Specs_2_" class="st7">
		<text transform="matrix(1 0 0 1 505.2063 9.8667)" class="st45 st46">#343433</text>
		<g>
			<g>
				<line class="st11" x1="526.7" y1="14.3" x2="511.6" y2="47.6"/>
				<g>
					<polygon class="st14" points="509.2,42.9 510.2,42.6 511.8,47.3 516.3,45.4 516.7,46.3 511.2,48.6      "/>
				</g>
			</g>
		</g>
	</g>
	<g id="Shadow_Specs_2_" class="st7">
		<text transform="matrix(1 0 0 1 504.1926 113.0024)" class="st45 st46">#000000 15%</text>
		<g>
			<g>
				<line class="st11" x1="537.8" y1="98.5" x2="529.4" y2="86.5"/>
				<g>
					<polygon class="st14" points="534.7,86.8 534.5,87.8 529.7,86.8 529,91.7 528,91.5 528.8,85.6      "/>
				</g>
			</g>
		</g>
	</g>
	<g id="Green_J_Specs_2_" class="st7">
		<g>
			<g>
				<line class="st11" x1="9.3" y1="131" x2="35.8" y2="113.6"/>
				<g>
					<polygon class="st14" points="35.2,118.8 34.3,118.6 35.4,113.8 30.6,113 30.7,112 36.7,113      "/>
				</g>
			</g>
		</g>
		<g>
			<g>
				<line class="st11" x1="12.5" y1="-22.7" x2="36" y2="9.5"/>
				<g>
					<polygon class="st14" points="30.8,9.2 30.9,8.2 35.8,9.2 36.4,4.3 37.4,4.4 36.7,10.3      "/>
				</g>
			</g>
		</g>
		<g>
			<g>
				<line class="st11" x1="92.9" y1="-24.4" x2="68" y2="47.8"/>
				<g>
					<polygon class="st14" points="65.2,43.4 66.1,43 68.1,47.5 72.4,45.2 72.9,46.1 67.6,48.9      "/>
				</g>
			</g>
		</g>
		<g>
			<g>
				<line class="st11" x1="75.8" y1="131" x2="68.6" y2="73.4"/>
				<g>
					<polygon class="st14" points="73.1,76.2 72.5,77 68.7,73.8 65.8,77.8 65,77.2 68.5,72.3      "/>
				</g>
			</g>
		</g>
	</g>
	<g id="Blue_S_Specs_2_" class="st7">
		<text transform="matrix(1 0 0 1 137.1936 105.0024)" class="st45 st46">#3A8FCD</text>
		<g>
			<g>
				<line class="st11" x1="169.9" y1="-1.5" x2="110.5" y2="33.6"/>
				<g>
					<polygon class="st14" points="111.3,28.4 112.3,28.6 110.9,33.4 115.7,34.4 115.5,35.4 109.6,34.1      "/>
				</g>
			</g>
		</g>
		<g>
			<g>
				<line class="st11" x1="-31.7" y1="34.1" x2="47.2" y2="34.1"/>
				<g>
					<polygon class="st14" points="43.9,38.2 43.2,37.5 46.8,34.1 43.2,30.8 43.9,30 48.3,34.1      "/>
				</g>
			</g>
		</g>
		<g>
			<g>
				<line class="st11" x1="-31.7" y1="85.6" x2="48.4" y2="85.6"/>
				<g>
					<polygon class="st14" points="45.1,89.7 44.4,88.9 48,85.6 44.4,82.2 45.1,81.5 49.5,85.6      "/>
				</g>
			</g>
		</g>
		<g>
			<g>
				<line class="st11" x1="134.4" y1="100.7" x2="85.9" y2="87.7"/>
				<g>
					<polygon class="st14" points="90.1,84.6 90.6,85.5 86.3,87.8 88.9,92 88,92.5 84.8,87.4      "/>
				</g>
			</g>
		</g>
	</g>
	<g id="Logo_Shadow_Specs" class="st7">
		<g>
			<g>
				<line class="st22" x1="76.7" y1="35.7" x2="77" y2="36.1"/>
				<line class="st23" x1="78.1" y1="37.8" x2="147.8" y2="143.2"/>
			</g>
		</g>
		<g>
			<g>
				<line class="st22" x1="70.7" y1="68.2" x2="71" y2="68.5"/>
				<line class="st47" x1="72.5" y1="70" x2="147.6" y2="143.4"/>
			</g>
		</g>
		<g>
			<g>
				<line class="st22" x1="76.7" y1="90.1" x2="77.1" y2="90.4"/>
				<line class="st25" x1="78.7" y1="91.6" x2="147.5" y2="143.6"/>
			</g>
		</g>
	</g>
</g>
<g id="Guides" class="st10">
</g>
</svg>