<?xml version="1.0" encoding="UTF-8" standalone="no"?>
<svg width="43px" height="52px" viewBox="0 0 43 52" version="1.1" xmlns="http://www.w3.org/2000/svg" xmlns:xlink="http://www.w3.org/1999/xlink">
    <!-- Generator: Sketch 44 (41411) - http://www.bohemiancoding.com/sketch -->
    <title>Page 1</title>
    <desc>Created with Sketch.</desc>
    <defs>
        <polygon id="path-1" points="6.05633795e-05 52 42.9760169 52 42.9760169 3.64485977e-05 6.05633795e-05 3.64485977e-05"></polygon>
    </defs>
    <g id="PCMAg-Footer" stroke="none" stroke-width="1" fill="none" fill-rule="evenodd">
        <g id="PCM-Desktop-HD" transform="translate(-190.000000, -20.000000)">
            <g id="Group-39" transform="translate(-1.000000, -1.000000)">
                <g id="Group-38" transform="translate(191.000000, 21.000000)">
                    <g id="Page-1">
                        <g id="Group-3">
                            <mask id="mask-2" fill="white">
                                <use xlink:href="#path-1"></use>
                            </mask>
                            <g id="Clip-2"></g>
                            <path d="M39.5502493,22.3284477 L32.2300746,22.3284477 L32.2300746,13.8679991 C32.2300746,13.0700178 31.8315676,12.5908402 31.0367338,12.5908402 C30.2411732,12.5908402 29.8432718,13.0700178 29.8432718,13.8679991 L29.8432718,38.050915 C29.8432718,39.0086626 30.2411732,39.4081393 31.0367338,39.4081393 C31.8315676,39.4081393 32.2300746,39.0086626 32.2300746,38.050915 L32.2300746,28.7133916 L39.5502493,28.7133916 L39.5502493,37.7325972 C39.5502493,41.8024477 37.561469,44.6762981 31.3544493,44.6762981 C25.148762,44.6762981 22.1245901,42.2806533 22.1245901,37.7325972 L22.1245901,14.1876533 C22.1245901,9.71796168 25.148762,7.32365327 31.3544493,7.32365327 C37.561469,7.32365327 39.5502493,10.1965318 39.5502493,14.1876533 L39.5502493,22.3284477 Z M20.5331056,23.3658963 C20.5331056,27.8352234 18.3850437,30.2298963 13.2921479,30.2298963 L11.1438437,30.2298963 L11.1438437,44.5159243 L3.42576761,44.5159243 L3.42576761,7.48293364 L13.2921479,7.48293364 C18.3850437,7.48293364 20.5331056,9.87772804 20.5331056,14.3471766 L20.5331056,23.3658963 Z M6.05633795e-05,52.0000364 L42.9760775,52.0000364 L42.9760775,3.64485977e-05 L6.05633795e-05,3.64485977e-05 L6.05633795e-05,52.0000364 Z" id="Fill-1" fill="#8F8B8B" mask="url(#mask-2)"></path>
                        </g>
                        <path d="M11.1438921,12.8309271 L11.1438921,24.8824131 C12.8942949,24.8824131 13.6108808,24.403357 13.6108808,22.8070299 L13.6108808,14.9055813 C13.6108808,13.3096187 12.8942949,12.8309271 11.1438921,12.8309271" id="Fill-4" fill="#8F8B8B"></path>
                    </g>
                </g>
            </g>
        </g>
    </g>
</svg>