<?xml version="1.0" encoding="UTF-8"?>
<svg width="60px" height="58px" viewBox="0 0 60 58" version="1.1" xmlns="http://www.w3.org/2000/svg" xmlns:xlink="http://www.w3.org/1999/xlink" style="background: #000000;">
    <!-- Generator: Sketch 49.3 (51167) - http://www.bohemiancoding.com/sketch -->
    <title>cart-icon</title>
    <desc>Created with Sketch.</desc>
    <defs></defs>
    <g id="cart-icon" stroke="none" stroke-width="1" fill="none" fill-rule="evenodd">
        <g id="shopping-cart-(2)" fill="#FFFFFF" fill-rule="nonzero">
            <path d="M47.5062891,41.4295404 C43.3810547,41.4295404 40.0250391,44.9027809 40.0250391,49.1718383 C40.0250391,53.4408957 43.3811719,56.9141362 47.5062891,56.9141362 C51.6314063,56.9141362 54.9875391,53.4408957 54.9875391,49.1718383 C54.9875391,44.9027809 51.6314062,41.4295404 47.5062891,41.4295404 Z M47.5062891,52.2687574 C45.8559375,52.2687574 44.5137891,50.8797766 44.5137891,49.1718383 C44.5137891,47.4639 45.8559375,46.0749191 47.5062891,46.0749191 C49.1566406,46.0749191 50.4987891,47.4639 50.4987891,49.1718383 C50.4987891,50.8797766 49.1566406,52.2687574 47.5062891,52.2687574 Z" id="Shape"></path>
            <path d="M59.5226953,11.506117 C59.0977734,10.9432723 58.4460937,10.6149766 57.755625,10.6149766 L13.8539062,10.6149766 L11.8339453,1.86850851 C11.5923047,0.823346809 10.6892578,0.0855 9.65085937,0.0855 L2.244375,0.0855 C1.00476562,0.0853787234 0,1.12520426 0,2.40806809 C0,3.69093191 1.00476562,4.73075745 2.244375,4.73075745 L7.87933594,4.73075745 L15.1735547,36.3163979 C15.4151953,37.3624085 16.3182422,38.0994064 17.3566406,38.0994064 L52.2943359,38.0994064 C53.3260547,38.0994064 54.2252344,37.3716255 54.4728516,36.3356809 L59.9342578,13.4957809 C60.0994922,12.8022 59.9476172,12.0689617 59.5226953,11.506117 Z M50.5383984,33.4541489 L19.1281641,33.4541489 L14.9266406,15.2603553 L54.8879297,15.2603553 L50.5383984,33.4541489 Z" id="Shape"></path>
            <path d="M20.3491406,41.4295404 C16.2239062,41.4295404 12.8678906,44.9027809 12.8678906,49.1718383 C12.8678906,53.4408957 16.2240234,56.9141362 20.3491406,56.9141362 C24.4742578,56.9141362 27.8303906,53.4408957 27.8303906,49.1718383 C27.8303906,44.9027809 24.4742578,41.4295404 20.3491406,41.4295404 Z M20.3491406,52.2687574 C18.6987891,52.2687574 17.3566406,50.8797766 17.3566406,49.1718383 C17.3566406,47.4639 18.6987891,46.0749191 20.3491406,46.0749191 C21.9994922,46.0749191 23.3416406,47.4639 23.3416406,49.1718383 C23.3416406,50.8797766 21.9994922,52.2687574 20.3491406,52.2687574 Z" id="Shape"></path>
        </g>
    </g>
</svg>