<?xml version="1.0" encoding="UTF-8"?>
<svg width="20px" height="20px" viewBox="0 0 20 20" version="1.1" xmlns="http://www.w3.org/2000/svg" xmlns:xlink="http://www.w3.org/1999/xlink">
    <!-- Generator: Sketch 49.3 (51167) - http://www.bohemiancoding.com/sketch -->
    <title>facebook_icon_w</title>
    <desc>Created with Sketch.</desc>
    <defs></defs>
    <g id="Page-1" stroke="none" stroke-width="1" fill="none" fill-rule="evenodd">
        <g id="facebook_icon_w" fill="#BCBCBC" fill-rule="nonzero">
            <path d="M3.75,0 L16.25,0 C18.3210678,0 20,1.67893222 20,3.75 L20,16.25 C20,18.3210678 18.3210678,20 16.25,20 L3.75,20 C1.67893222,20 0,18.3210678 0,16.25 L0,3.75 C0,1.67893222 1.67893222,0 3.75,0 Z M13.75,13.0769231 L15.6944444,13.0769231 L16.25,10.4807692 L13.75,10.4807692 L13.75,8.75 C13.6181256,8.016762 13.82451,7.49066567 14.8611111,7.59615389 L16.25,7.59615389 L16.25,5 C16.0147422,5.07262211 15.2078178,5 14.3055556,5 C12.3088178,5 10.9668756,6.24265178 10.9722222,8.46153844 L10.9722222,10.4807692 L8.75,10.4807692 L8.75,13.0769231 L10.9722222,13.0769231 L10.9722222,20 L13.75,20 L13.75,13.0769231 Z" id="facebook_icon"></path>
        </g>
    </g>
</svg>