<?xml version="1.0" encoding="UTF-8"?>
<svg width="439px" height="170px" viewBox="0 0 439 170" version="1.1" xmlns="http://www.w3.org/2000/svg" xmlns:xlink="http://www.w3.org/1999/xlink">
    <!-- Generator: Sketch 49.3 (51167) - http://www.bohemiancoding.com/sketch -->
    <title>LIFX_Logo</title>
    <desc>Created with Sketch.</desc>
    <defs></defs>
    <g id="Page-1" stroke="none" stroke-width="1" fill="none" fill-rule="evenodd">
        <g id="LIFX_Logo" fill="#FFFFFF" fill-rule="nonzero">
            <path d="M42.8,0 L0.9,0 L0.9,169.7 L90.1,169.7 L90.1,127.8 L42.7,127.8 L42.7,0 L42.8,0 Z M120.5,169.6 L162.4,169.6 L162.4,0 L120.5,0 L120.5,169.6 Z M439,0 L388.9,0 L368.2,47.5 L347.5,0 L193.3,0 L193.3,169.7 L235.2,169.7 L235.2,116.7 L289.2,116.7 L289.2,77 L235.2,77 L235.2,42.4 L321,42.4 L345.3,85.9 L298.5,169.7 L345.3,169.7 L368.2,126.6 L387.8,169.7 L437.9,169.7 L391,85.9 L439,0 Z" id="Shape"></path>
        </g>
    </g>
</svg>