<svg id="Layer_1" data-name="Layer 1" xmlns="http://www.w3.org/2000/svg" viewBox="0 0 855.63 149.17"><defs><style>.cls-1{isolation:isolate;}</style></defs><title>Artboard 1</title><g class="cls-1"><g class="cls-1"><path d="M0,.67H9.27v49.8H34.2v7.86H0Z"/><path d="M80.46.67h9.27V58.33H80.46Z"/><path d="M138.33,29.63C138.33,13.22,152.1,0,169.74,0a31.58,31.58,0,0,1,21.42,8l-6.48,5.52A23,23,0,0,0,169.74,8a21.64,21.64,0,1,0,0,43.27c10.08,0,17.82-5.19,19.17-13.31a6.8,6.8,0,0,0,.18-1.42H171.27V29.13h28c0,20.5-11.7,30-29.52,30C152.1,59.17,138.33,46,138.33,29.63Z"/><path d="M293.49.67V58.33h-9.27V33.56H255.6V58.33h-9.27V.67h9.27V25.78h28.62V.67Z"/><path d="M385.74,8.54H367.29V58.33H358V8.54H339.57V.67h46.17Z"/><path d="M431.91.67h9.27V58.33h-9.27Z"/><path d="M539,.67V58.33h-8.73l-27.08-42v42h-9.27V.67h9l26.81,41.68V.67Z"/><path d="M587.61,29.63C587.61,13.22,601.38,0,619,0a31.58,31.58,0,0,1,21.42,8L634,13.47A23,23,0,0,0,619,8a21.64,21.64,0,1,0,0,43.27c10.08,0,17.82-5.19,19.17-13.31a6.8,6.8,0,0,0,.18-1.42H620.54V29.13h28c0,20.5-11.7,30-29.52,30C601.38,59.17,587.61,46,587.61,29.63Z"/></g><g class="cls-1"><path d="M16.38,126.82H9.27v21.51H0V90.67H23.67c13.59,0,19.08,9.12,19.08,18.24,0,8.29-4.5,16.4-15.93,17.74l16.47,21.68H32.22Zm-7.11-7.53H21.42c8.55,0,12.06-4.27,12.06-10.38s-3.87-10.38-9.9-10.38H9.27Z"/><path d="M130,140.46v7.87H92V90.67h37.17v7.86h-28V116h24.39v8H101.16v16.48Z"/><path d="M178.92,90.67h9.27v57.66h-9.27Z"/><path d="M302.58,148.33l-5.49-41.85L278.64,142h-7.92l-18.63-35.49-5.49,41.85h-9.18L245,90.67h8.28l21.33,41.51,21.33-41.51h8.28l7.55,57.66Z"/></g><g class="cls-1"><path d="M393.93,133.77H368.19l-5.76,14.56h-9.72L376.2,90.67h9.9l23.4,57.66h-9.72Zm-3-7.53-9.9-24.86-9.9,24.86Z"/></g><g class="cls-1"><path d="M448.65,119.62c0-16.4,13.77-29.62,31.41-29.62a31.58,31.58,0,0,1,21.42,8L495,103.47A23,23,0,0,0,480.06,98a21.64,21.64,0,1,0,0,43.27c10.08,0,17.82-5.19,19.17-13.31a6.88,6.88,0,0,0,.18-1.42H481.59v-7.37h28c0,20.51-11.7,30-29.52,30C462.42,149.17,448.65,135.94,448.65,119.62Z"/><path d="M556.65,90.67h9.27v57.66h-9.27Z"/><path d="M663.75,90.67v57.66H655l-27.09-42v42h-9.27V90.67h9l26.82,41.68V90.67Z"/><path d="M754.47,140.46v7.87h-38V90.67h37.17v7.86h-28V116h24.39v8H725.67v16.48Z"/><path d="M803.43,90.67h24.12c17.73,0,28.07,12.55,28.07,29s-10.34,28.71-28.07,28.71H803.43Zm24.12,49.79c12.42,0,18.81-9.12,18.81-20.84S840,98.53,827.55,98.53H812.7v41.93Z"/></g></g></svg>