<?xml version="1.0" encoding="UTF-8"?>
<svg width="335px" height="240px" viewBox="0 0 335 240" version="1.1" xmlns="http://www.w3.org/2000/svg" xmlns:xlink="http://www.w3.org/1999/xlink">
    <!-- Generator: Sketch 52.2 (67145) - http://www.bohemiancoding.com/sketch -->
    <title>LIFX_White</title>
    <desc>Created with Sketch.</desc>
    <g id="LIFX_White" stroke="none" stroke-width="1" fill="none" fill-rule="evenodd">
        <g id="LIFX-Feature-Icons-Menu-White" transform="translate(82.000000, 46.000000)" fill="#FFF6EB" fill-rule="nonzero">
            <path d="M85.04,1.12 C38.648081,1.12 1.04,38.728081 1.04,85.12 C1.04,131.511919 38.648081,169.12 85.04,169.12 C131.431919,169.12 169.04,131.511919 169.04,85.12 C169.04,62.8418149 160.190025,41.4760862 144.43697,25.7230304 C128.683914,9.96997459 107.318185,1.12 85.04,1.12 Z M127.28,96 C126.43205,91.7937269 124.934095,87.7451995 122.84,84 C120.655831,80.0785397 117.79898,76.5717883 114.4,73.64 C111.075916,70.7565158 107.23455,68.5304242 103.08,67.08 L100,66.2 L96.88,65.68 C95.88,65.68 95,65.68 94.08,65.48 C93.16,65.28 93,65.48 92.36,65.48 L89.16,65.48 L87.68,65.72 C86.7065358,65.8674462 85.7442919,66.0812782 84.8,66.36 L83.4,66.76 L82.04,67.28 C81.1464709,67.5875985 80.2773512,67.9619885 79.44,68.4 C76.2083714,69.9953694 73.2835453,72.1483664 70.8,74.76 C68.5914905,77.1526494 66.7330304,79.84607 65.28,82.76 C64.0807082,85.1230161 63.16759,87.6206628 62.56,90.2 L62.2,91.88 C62.2,92.4 62.2,92.92 62,93.44 C61.8,93.96 62,94.4 61.8,94.88 C61.6,95.36 61.8,95.56 61.8,95.84 L36.76,95.84 C36.76,95.52 36.76,95.16 36.96,94.8 C37.16,94.44 37.24,93.28 37.4,92.48 C37.56,91.68 37.72,90.76 37.92,89.92 C38.12,89.08 38.4,88.32 38.68,87.48 C38.96,86.64 39.2,85.72 39.48,84.8 C39.76,83.88 40.24,83 40.6,82.04 C42.3330991,77.7845341 44.5761585,73.755086 47.28,70.04 C50.409174,65.8359715 54.1273161,62.1043579 58.32,58.96 C62.8728623,55.5225309 68.0084051,52.9344342 73.48,51.32 C74.8808804,50.8747053 76.3109852,50.5272032 77.76,50.28 L79.92,49.84 L82.16,49.64 C83.6310037,49.4393166 85.115935,49.3590501 86.6,49.4 L90.32,49.4 L91.24,49.4 L93.12,49.64 C93.8057591,49.7059998 94.4869694,49.8128563 95.16,49.96 C96.72,50.32 98.36,50.64 99.84,51.08 L104.04,52.6 L108.04,54.52 C113.22798,57.3278994 117.84152,61.0865771 121.64,65.6 C125.245623,69.9338936 128.098558,74.8420229 130.08,80.12 C131.92992,84.9705725 132.970441,90.0920984 133.16,95.28 L133.16,96 L127.28,96 Z" id="Shape"></path>
        </g>
    </g>
</svg>