<?xml version="1.0" encoding="UTF-8"?>
<svg width="18px" height="22px" viewBox="0 0 18 22" version="1.1" xmlns="http://www.w3.org/2000/svg" xmlns:xlink="http://www.w3.org/1999/xlink">
    <!-- Generator: Sketch 49.3 (51167) - http://www.bohemiancoding.com/sketch -->
    <title>pinterest_icon_w</title>
    <desc>Created with Sketch.</desc>
    <defs></defs>
    <g id="Page-1" stroke="none" stroke-width="1" fill="none" fill-rule="evenodd">
        <g id="pinterest_icon_w" fill="#BCBCBC" fill-rule="nonzero">
            <path d="M15.6588934,2.24753698 C14.0844836,0.79822508 11.9056721,0 9.52384426,0 C5.88548361,0 3.64772951,1.43014148 2.41118852,2.6298135 C0.887237705,4.1082701 0.013352459,6.07136334 0.013352459,8.01585209 C0.013352459,10.4572862 1.07830328,12.3311768 2.86170492,13.0283151 C2.98143443,13.0753569 3.10190164,13.0990547 3.2200082,13.0990547 C3.5962377,13.0990547 3.89434426,12.8629968 3.99762295,12.484328 C4.05781967,12.2670868 4.19731967,11.731164 4.25795902,11.4985016 C4.38779508,11.0390482 4.28289344,10.8180579 3.9997623,10.4981029 C3.48395902,9.9128746 3.2437623,9.22082958 3.2437623,8.32017363 C3.2437623,5.64494534 5.32113934,2.80171061 9.17136885,2.80171061 C12.2263525,2.80171061 14.1240984,4.4667074 14.1240984,7.14688746 C14.1240984,8.83819936 13.7441803,10.4045145 13.0541311,11.5574984 C12.574623,12.3586238 11.7314262,13.3136077 10.4369754,13.3136077 C9.87720492,13.3136077 9.37438525,13.0931125 9.05709836,12.7087138 C8.75736885,12.3453248 8.65859016,11.8758971 8.77913115,11.3866624 C8.91531148,10.8339035 9.1009918,10.2573055 9.28069672,9.69987781 C9.60845902,8.68179421 9.91829508,7.72023151 9.91829508,6.95306109 C9.91829508,5.64084244 9.07701639,4.75914469 7.82505738,4.75914469 C6.23397541,4.75914469 4.98747541,6.30876527 4.98747541,8.28699678 C4.98747541,9.25718971 5.25636885,9.98283601 5.37809016,10.2614791 C5.17765574,11.0758328 3.98640984,15.9173183 3.76045082,16.830283 C3.62980328,17.3632347 2.8427459,21.5725916 4.14545902,21.9082508 C5.60913934,22.2853633 6.91745902,18.1857235 7.05061475,17.7224502 C7.15854098,17.3456913 7.53617213,15.9210675 7.76759016,15.0453119 C8.47416393,15.697955 9.61185246,16.1391576 10.7188525,16.1391576 C12.8057459,16.1391576 14.682541,15.2386431 16.0035492,13.6036399 C17.2847213,12.0178006 17.9903361,9.80747267 17.9903361,7.38011576 C17.9903361,5.48245659 17.1405,3.61167846 15.6588934,2.24753698 Z" id="XMLID_799_"></path>
        </g>
    </g>
</svg>