<?xml version="1.0" encoding="UTF-8"?>
<svg width="23px" height="18px" viewBox="0 0 23 18" version="1.1" xmlns="http://www.w3.org/2000/svg" xmlns:xlink="http://www.w3.org/1999/xlink">
    <!-- Generator: Sketch 49.3 (51167) - http://www.bohemiancoding.com/sketch -->
    <title>twitter_icon_w</title>
    <desc>Created with Sketch.</desc>
    <defs></defs>
    <g id="Page-1" stroke="none" stroke-width="1" fill="none" fill-rule="evenodd">
        <g id="twitter_icon_w" fill="#BCBCBC" fill-rule="nonzero">
            <path d="M23,2.1317418 C22.153703,2.49396907 21.2439073,2.735829 20.2903174,2.84607214 C21.2647091,2.28360724 22.0124709,1.39266292 22.365004,0.332979188 C21.4519226,0.852696675 20.4424986,1.23067305 19.3673844,1.43541034 C18.5079489,0.551215575 17.2806546,0 15.9241716,0 C13.3184972,0 11.2043985,2.03499776 11.2043985,4.54359105 C11.2043985,4.90019377 11.2460011,5.24779706 11.3270181,5.57965125 C7.40536914,5.38953817 3.92821819,3.58065124 1.60062805,0.832448025 C1.19445024,1.50403095 0.962347381,2.28360724 0.962347381,3.11718015 C0.962347381,4.69208171 1.79550595,6.08474475 3.06111929,6.89919379 C2.28817581,6.87444536 1.56121481,6.67083307 0.924029381,6.32997934 L0.924029381,6.38847574 C0.924029381,8.58996315 2.54983805,10.4258484 4.70882505,10.8431973 C4.31359524,10.9466909 3.8953731,11.0006875 3.46620295,11.0006875 C3.16184286,11.0006875 2.86624138,10.9736892 2.57830329,10.9219424 C3.17826595,12.7252046 4.92122019,14.0402475 6.98605286,14.0773701 C5.37119219,15.295669 3.33701414,16.0212486 1.12547652,16.0212486 C0.744478238,16.0212486 0.368955048,15.999875 0,15.9582526 C2.0878239,17.2462971 4.56868824,18 7.23348248,18 C15.9132236,18 20.6592725,11.0749328 20.6592725,5.07118309 C20.6592725,4.87319546 20.6537985,4.67858261 20.6450399,4.48284488 C21.5668788,3.84163492 22.3671933,3.04180988 23,2.1317418 Z" id="twitter_icon"></path>
        </g>
    </g>
</svg>