<?xml version="1.0" encoding="UTF-8"?>
<svg width="16px" height="12px" viewBox="0 0 16 12" version="1.1" xmlns="http://www.w3.org/2000/svg" xmlns:xlink="http://www.w3.org/1999/xlink">
    <!-- Generator: Sketch 52.2 (67145) - http://www.bohemiancoding.com/sketch -->
    <title>AUS_icon</title>
    <desc>Created with Sketch.</desc>
    <defs>
        <filter x="-109.4%" y="-145.8%" width="318.8%" height="391.7%" filterUnits="objectBoundingBox" id="filter-1">
            <feOffset dx="0" dy="3" in="SourceAlpha" result="shadowOffsetOuter1"></feOffset>
            <feGaussianBlur stdDeviation="3" in="shadowOffsetOuter1" result="shadowBlurOuter1"></feGaussianBlur>
            <feColorMatrix values="0 0 0 0 0   0 0 0 0 0   0 0 0 0 0  0 0 0 0.1 0" type="matrix" in="shadowBlurOuter1" result="shadowMatrixOuter1"></feColorMatrix>
            <feMerge>
                <feMergeNode in="shadowMatrixOuter1"></feMergeNode>
                <feMergeNode in="SourceGraphic"></feMergeNode>
            </feMerge>
        </filter>
        <rect id="path-2" x="0" y="0" width="16" height="12" rx="1"></rect>
        <rect id="path-4" x="0" y="0" width="8" height="6"></rect>
    </defs>
    <g id="AUS_icon" stroke="none" stroke-width="1" fill="none" fill-rule="evenodd">
        <g filter="url(#filter-1)">
            <mask id="mask-3" fill="white">
                <use xlink:href="#path-2"></use>
            </mask>
            <use id="Rectangle-77" fill="#FFFFFF" xlink:href="#path-2"></use>
            <rect id="Rectangle-119-Copy" fill="#00247D" mask="url(#mask-3)" x="0" y="0" width="16" height="12"></rect>
            <rect id="Rectangle-28-Copy" fill="#FFFFFF" mask="url(#mask-3)" x="12" y="2" width="1" height="1"></rect>
            <rect id="Rectangle-28-Copy-4" fill="#FFFFFF" mask="url(#mask-3)" x="11" y="5" width="1" height="1"></rect>
            <rect id="Rectangle-28-Copy-5" fill="#FFFFFF" mask="url(#mask-3)" x="14" y="4" width="1" height="1"></rect>
            <rect id="Rectangle-28-Copy-7" fill="#FFFFFF" mask="url(#mask-3)" x="13" y="6" width="1" height="1"></rect>
            <rect id="Rectangle-28-Copy-6" fill="#FFFFFF" mask="url(#mask-3)" x="12" y="9" width="1" height="1"></rect>
            <rect id="Rectangle-54" fill="#FFFFFF" mask="url(#mask-3)" x="3" y="8" width="2" height="2"></rect>
            <g id="UK" mask="url(#mask-3)">
                <g>
                    <mask id="mask-5" fill="white">
                        <use xlink:href="#path-4"></use>
                    </mask>
                    <use id="Rectangle-77" fill="#FFFFFF" xlink:href="#path-4"></use>
                    <g id="St-Andrew" mask="url(#mask-5)">
                        <g transform="translate(-1.000000, -1.000000)">
                            <rect id="Rectangle-77" fill="#00247D" x="1" y="1" width="8" height="6"></rect>
                            <polygon id="Rectangle-3" fill="#FFFFFF" transform="translate(4.925570, 3.865111) rotate(36.000000) translate(-4.925570, -3.865111) " points="-0.61786254 3.11511086 10.4690033 3.11511086 10.4690033 4.61511086 -0.61786254 4.61511086"></polygon>
                            <polygon id="Rectangle-3-Copy" fill="#FFFFFF" transform="translate(4.925570, 3.865111) scale(-1, 1) rotate(36.000000) translate(-4.925570, -3.865111) " points="-0.61786254 3.11511086 10.4690033 3.11511086 10.4690033 4.61511086 -0.61786254 4.61511086"></polygon>
                        </g>
                    </g>
                    <g id="St-Patrick" mask="url(#mask-5)">
                        <g transform="translate(-1.000000, -3.000000)">
                            <g id="Group-2" transform="translate(0.500000, 2.500000)">
                                <polygon id="Rectangle-2" fill="#CF142B" transform="translate(2.216811, 2.056099) rotate(36.000000) translate(-2.216811, -2.056099) " points="-0.341682342 1.80609861 4.77530337 1.80609861 4.77530337 2.30609861 -0.341682342 2.30609861"></polygon>
                                <polygon id="Rectangle-2-Copy" fill="#CF142B" transform="translate(6.716811, 4.856099) rotate(36.000000) translate(-6.716811, -4.856099) " points="4.15831766 4.60609871 9.27530337 4.60609871 9.27530337 5.10609871 4.15831766 5.10609871"></polygon>
                            </g>
                            <g id="Group-2-Copy" transform="translate(5.077254, 5.762236) rotate(-72.000000) translate(-5.077254, -5.762236) translate(0.327254, 2.262236)">
                                <polygon id="Rectangle-2-Copy" fill="#CF142B" transform="translate(6.895677, 4.831826) rotate(36.000000) translate(-6.895677, -4.831826) " points="4.1210618 4.58182621 9.67029292 4.58182621 9.67029292 5.08182621 4.1210618 5.08182621"></polygon>
                                <polygon id="Rectangle-2" fill="#CF142B" transform="translate(2.516875, 2.108602) rotate(36.000000) translate(-2.516875, -2.108602) " points="-0.0416182034 1.85860187 5.07536751 1.85860187 5.07536751 2.35860187 -0.0416182034 2.35860187"></polygon>
                            </g>
                        </g>
                    </g>
                    <g id="St-George" mask="url(#mask-5)">
                        <path d="M3,2 L3,0 L5,0 L5,2 L8,2 L8,4 L5,4 L5,6 L3,6 L3,4 L0,4 L0,2 L3,2 Z" id="Combined-Shape" fill="#FFFFFF"></path>
                        <polygon id="Rectangle-112" fill="#CF142B" points="8 2.5 8 3.5 4.5 3.5 4.5 6 3.5 6 3.5 3.5 0 3.5 0 2.5 3.5 2.5 3.5 0 4.5 0 4.5 2.5"></polygon>
                    </g>
                </g>
            </g>
            <g id="Overlay" mask="url(#mask-3)" stroke="#000000" stroke-opacity="0.1">
                <g>
                    <rect style="mix-blend-mode: multiply;" x="0.5" y="0.5" width="15" height="11"></rect>
                </g>
            </g>
        </g>
    </g>
</svg>