<?xml version="1.0" encoding="UTF-8"?>
<svg width="20px" height="20px" viewBox="0 0 20 20" version="1.1" xmlns="http://www.w3.org/2000/svg" xmlns:xlink="http://www.w3.org/1999/xlink">
    <!-- Generator: Sketch 49.3 (51167) - http://www.bohemiancoding.com/sketch -->
    <title>instagram_icon_w</title>
    <desc>Created with Sketch.</desc>
    <defs></defs>
    <g id="Page-1" stroke="none" stroke-width="1" fill="none" fill-rule="evenodd">
        <g id="instagram_icon_w" fill="#BCBCBC" fill-rule="nonzero">
            <path d="M14.0173189,0 L5.94768116,0 C2.66811594,0 0,2.66811594 0,5.94768116 L0,14.0173189 C0,17.2968841 2.66811594,19.965 5.94768116,19.965 L14.0173189,19.965 C17.2968841,19.965 19.965,17.2968841 19.965,14.0173189 L19.965,5.94768116 C19.9649638,2.66811594 17.2968478,0 14.0173189,0 Z M17.9565218,14.0173189 C17.9565218,16.1928623 16.1928623,17.9565218 14.0173189,17.9565218 L5.94768116,17.9565218 C3.77213768,17.9565218 2.00847826,16.1928623 2.00847826,14.0173189 L2.00847826,5.94768116 C2.00847826,3.77210144 3.77213768,2.00847826 5.94768116,2.00847826 L14.0173189,2.00847826 C16.1928623,2.00847826 17.9565218,3.77210144 17.9565218,5.94768116 L17.9565218,14.0173189 Z" id="Shape"></path>
            <path d="M9.9825,4.81884058 C7.13525362,4.81884058 4.81884058,7.13525362 4.81884058,9.98246377 C4.81884058,12.8296739 7.13525362,15.1461232 9.9825,15.1461232 C12.8297463,15.1461232 15.1461594,12.8297101 15.1461594,9.98246377 C15.1461594,7.13521739 12.8297463,4.81884058 9.9825,4.81884058 Z M9.9825,13.1376811 C8.23992753,13.1376811 6.82731884,11.7250724 6.82731884,9.9825 C6.82731884,8.23992753 8.23996377,6.82731884 9.9825,6.82731884 C11.7250724,6.82731884 13.1376811,8.23992753 13.1376811,9.9825 C13.1376811,11.7250362 11.7250362,13.1376811 9.9825,13.1376811 Z" id="Shape"></path>
            <circle id="Oval" cx="15.1561594" cy="4.8576087" r="1.23731884"></circle>
        </g>
    </g>
</svg>