<?xml version="1.0" encoding="UTF-8"?>
<svg width="11px" height="10px" viewBox="0 0 11 10" version="1.1" xmlns="http://www.w3.org/2000/svg" xmlns:xlink="http://www.w3.org/1999/xlink">
    <!-- Generator: Sketch 49.3 (51167) - http://www.bohemiancoding.com/sketch -->
    <title>support</title>
    <desc>Created with Sketch.</desc>
    <defs></defs>
    <g id="support" stroke="none" stroke-width="1" fill="none" fill-rule="evenodd">
        <g id="external-link-symbol-(1)" fill="#FFFFFF" fill-rule="nonzero">
            <path d="M8.5999403,5.95952359 L8.19990846,5.95952359 C8.141482,5.95952359 8.09354123,5.97842954 8.05623937,6.01641832 C8.01863103,6.05418598 7.99991443,6.10258962 7.99991443,6.16154078 L7.99991443,8.18173476 C7.99991443,8.4595305 7.90206271,8.69728103 7.70624981,8.89511901 C7.51043692,9.09291276 7.27497985,9.19173224 6.99996617,9.19173224 L1.79994627,9.19173224 C1.52495448,9.19173224 1.2895193,9.09291276 1.09366262,8.89511901 C0.89784973,8.69730314 0.799954228,8.45955261 0.799954228,8.18173476 L0.799954228,2.92917734 C0.799954228,2.65140371 0.897827839,2.4136753 1.09366262,2.21585943 C1.2895193,2.01802145 1.52495448,1.91915775 1.79994627,1.91915775 L6.19985871,1.91915775 C6.25828516,1.91915775 6.30622593,1.90016335 6.34368103,1.86232936 C6.38113613,1.82445113 6.39985273,1.77609172 6.39985273,1.71711845 L6.39985273,1.31301774 C6.39985273,1.25415502 6.38113613,1.20570716 6.34368103,1.16789528 C6.30622593,1.13001705 6.25828516,1.11111111 6.19985871,1.11111111 L1.79994627,1.11111111 C1.30416422,1.11111111 0.880183882,1.28893754 0.528049035,1.64456827 C0.176045533,2.0001769 0,2.42844626 0,2.92924368 L0,8.18182321 C0,8.68259852 0.176045533,9.11093421 0.528070926,9.46643228 C0.880205773,9.82208513 1.30418611,10 1.79996816,10 L6.99996617,10 C7.49572633,10 7.91975045,9.82208513 8.27184151,9.46643228 C8.62395447,9.11093421 8.8,8.68262063 8.8,8.18182321 L8.8,6.16169556 C8.8,6.10267807 8.78126151,6.05425232 8.74365317,6.01641832 C8.70615429,5.97842954 8.65821351,5.95952359 8.5999403,5.95952359 Z" id="Shape"></path>
            <path d="M10.8866515,0.114412277 C10.8111207,0.0381163318 10.7215779,0 10.6183156,0 L7.56580069,0 C7.46247568,0 7.37299555,0.0381163318 7.29752736,0.114412277 C7.22199653,0.190666034 7.1841789,0.281010389 7.1841789,0.385403154 C7.1841789,0.489795918 7.22199653,0.580161367 7.29752736,0.656457312 L8.34679411,1.71637399 L4.4596395,5.64298898 C4.41983807,5.68313031 4.4,5.72932553 4.4,5.78142699 C4.4,5.83371829 4.41990071,5.87989242 4.4596395,5.92003375 L5.1393126,6.60650741 C5.17905138,6.64664874 5.22478335,6.66666667 5.27644585,6.66666667 C5.32810836,6.66666667 5.37386121,6.64666983 5.41357911,6.60650741 L9.30075461,2.6799557 L10.3501049,3.73987238 C10.4255731,3.81616833 10.5150323,3.85432685 10.6183782,3.85432685 C10.7217241,3.85432685 10.8111834,3.81616833 10.8867351,3.73987238 C10.9622659,3.66359753 11,3.57327427 11,3.46888151 L11,0.385403154 C10.9999791,0.280947108 10.9621197,0.190666034 10.8866515,0.114412277 Z" id="Shape"></path>
        </g>
    </g>
</svg>