<?xml version="1.0" encoding="UTF-8"?>
<svg width="16px" height="12px" viewBox="0 0 16 12" version="1.1" xmlns="http://www.w3.org/2000/svg" xmlns:xlink="http://www.w3.org/1999/xlink">
    <!-- Generator: Sketch 52.2 (67145) - http://www.bohemiancoding.com/sketch -->
    <title>UK_icon</title>
    <desc>Created with Sketch.</desc>
    <defs>
        <filter x="-109.4%" y="-145.8%" width="318.8%" height="391.7%" filterUnits="objectBoundingBox" id="filter-1">
            <feOffset dx="0" dy="3" in="SourceAlpha" result="shadowOffsetOuter1"></feOffset>
            <feGaussianBlur stdDeviation="3" in="shadowOffsetOuter1" result="shadowBlurOuter1"></feGaussianBlur>
            <feColorMatrix values="0 0 0 0 0   0 0 0 0 0   0 0 0 0 0  0 0 0 0.1 0" type="matrix" in="shadowBlurOuter1" result="shadowMatrixOuter1"></feColorMatrix>
            <feMerge>
                <feMergeNode in="shadowMatrixOuter1"></feMergeNode>
                <feMergeNode in="SourceGraphic"></feMergeNode>
            </feMerge>
        </filter>
        <rect id="path-2" x="0" y="0" width="16" height="12" rx="1"></rect>
        <polygon id="path-4" points="6.81818182 5.99999998 0 0.999999963 0 1.03437605e-08 1 -3.74683395e-08 8 5.13333331 15 -3.74683395e-08 16 1.03437605e-08 16 0.999999963 9.18181818 5.99999998 16 11 16 12 15 12 8 6.86666665 1 12 0 12 0 11"></polygon>
        <filter x="-9.4%" y="-12.5%" width="118.8%" height="125.0%" filterUnits="objectBoundingBox" id="filter-5">
            <feMorphology radius="0.5" operator="dilate" in="SourceAlpha" result="shadowSpreadOuter1"></feMorphology>
            <feOffset dx="0" dy="0" in="shadowSpreadOuter1" result="shadowOffsetOuter1"></feOffset>
            <feColorMatrix values="0 0 0 0 1   0 0 0 0 1   0 0 0 0 1  0 0 0 1 0" type="matrix" in="shadowOffsetOuter1"></feColorMatrix>
        </filter>
    </defs>
    <g id="UK_icon" stroke="none" stroke-width="1" fill="none" fill-rule="evenodd">
        <g filter="url(#filter-1)">
            <mask id="mask-3" fill="white">
                <use xlink:href="#path-2"></use>
            </mask>
            <use id="Rectangle-77" fill="#00247D" xlink:href="#path-2"></use>
            <g id="Rectangle-114" mask="url(#mask-3)">
                <use fill="black" fill-opacity="1" filter="url(#filter-5)" xlink:href="#path-4"></use>
                <use fill="#CF142B" fill-rule="evenodd" xlink:href="#path-4"></use>
            </g>
            <path d="M9.5,4.5 L16.5,4.5 L16.5,7.5 L9.5,7.5 L9.5,12.5 L6.5,12.5 L6.5,7.5 L-0.5,7.5 L-0.5,4.5 L6.5,4.5 L6.5,-0.5 L9.5,-0.5 L9.5,4.5 Z" id="Rectangle-112" stroke="#FFFFFF" fill="#CF142B" mask="url(#mask-3)"></path>
            <g id="Overlay" mask="url(#mask-3)" stroke="#000000" stroke-opacity="0.1">
                <g>
                    <rect style="mix-blend-mode: multiply;" x="0.5" y="0.5" width="15" height="11"></rect>
                </g>
            </g>
        </g>
    </g>
</svg>