<?xml version="1.0" encoding="UTF-8"?>
<svg width="24px" height="18px" viewBox="0 0 24 18" version="1.1" xmlns="http://www.w3.org/2000/svg" xmlns:xlink="http://www.w3.org/1999/xlink">
    <!-- Generator: Sketch 49.3 (51167) - http://www.bohemiancoding.com/sketch -->
    <title>youtube_icon_w</title>
    <desc>Created with Sketch.</desc>
    <defs></defs>
    <g id="Page-1" stroke="none" stroke-width="1" fill="none" fill-rule="evenodd">
        <g id="youtube_icon_w" fill="#BCBCBC" fill-rule="nonzero">
            <path d="M9.33333382,12.8580613 L9.33333382,5.14322449 L16.0000004,9.01350101 L9.33333382,12.8580613 Z M23.76,3.88313449 C23.76,3.88313449 23.5253335,2.11900849 22.8066665,1.34238161 C21.8933335,0.3227373 20.8706662,0.3188799 20.4013331,0.2597328 C17.0440004,0 12.0066665,0 12.0066665,0 L11.9959996,0 C11.9959996,0 6.95733382,0 3.6,0.2597328 C3.12933382,0.3188799 2.10666655,0.324023175 1.19333345,1.34238161 C0.473333455,2.11900849 0.24,3.88313449 0.24,3.88313449 C0.24,3.88313449 0,5.95328243 0,8.02343025 L0,9.96756908 C0,12.037717 0.24,14.1078648 0.24,14.1078648 C0.24,14.1078648 0.473333455,15.8732767 1.19333345,16.6499036 C2.10666655,17.668262 3.30533345,17.6361168 3.84,17.7428387 C5.76,17.9395671 12,18 12,18 C12,18 17.0426662,17.9922852 20.4,17.7325523 C20.8706662,17.6734052 21.8933335,17.668262 22.8066665,16.6486177 C23.5266665,15.8707051 23.76,14.1065791 23.76,14.1065791 C23.76,14.1065791 24,12.0364311 24,9.96628331 L24,8.02343025 C24,5.95328243 23.76,3.88313449 23.76,3.88313449 Z" id="youtube_icon"></path>
        </g>
    </g>
</svg>